<?xml version="1.0" standalone="no"?>
<!DOCTYPE svg PUBLIC "-//W3C//DTD SVG 1.1//EN" "http://www.w3.org/Graphics/SVG/1.1/DTD/svg11.dtd" >
<svg xmlns="http://www.w3.org/2000/svg">
<metadata>Generated by IcoMoon</metadata>
<defs>
<font id="icomoon" horiz-adv-x="1024">
<font-face units-per-em="1024" ascent="960" descent="-64" />
<missing-glyph horiz-adv-x="1024" />
<glyph unicode="&#x20;" horiz-adv-x="512" d="" />
<glyph unicode="&#xe900;" glyph-name="Add" d="M984.31 491.659h-428.651v428.651c0 23.814-23.814 39.69-39.69 39.69-23.814 0-47.628-15.876-47.628-39.69v-428.651h-428.651c-23.814 0-39.69-23.814-39.69-47.628 0-15.876 15.876-39.69 39.69-39.69h428.651v-428.651c0-23.814 15.876-39.69 39.69-39.69s39.69 15.876 39.69 39.69v428.651h428.651c23.814 0 39.69 15.876 39.69 39.69 7.938 23.814-7.938 47.628-31.752 47.628z" />
<glyph unicode="&#xe901;" glyph-name="Arrow-up" d="M995.328 714.24c-4.096 8.192-12.288 16.384-20.48 20.48-4.096 4.096-12.288 4.096-16.384 4.096h-245.76c-24.576 0-40.96-16.384-40.96-40.96s16.384-40.96 40.96-40.96h147.456l-290.816-290.816-176.128 176.128c-16.384 16.384-40.96 16.384-57.344 0l-307.2-307.2c-16.384-16.384-16.384-40.96 0-57.344 8.192-8.192 20.48-12.288 28.672-12.288s20.48 4.096 28.672 12.288l278.528 278.528 176.128-176.128c16.384-16.384 40.96-16.384 57.344 0l319.488 319.488v-147.456c0-24.576 16.384-40.96 40.96-40.96s40.96 16.384 40.96 40.96v245.76c0 4.096 0 8.192-4.096 16.384z" />
<glyph unicode="&#xe902;" glyph-name="arrow" d="M500.736 262.892l-452.923 452.923c-5.352 4.681-12.406 7.536-20.126 7.536s-14.773-2.855-20.161-7.567l0.036 0.031c-4.681-5.352-7.536-12.406-7.536-20.126s2.855-14.773 7.567-20.161l-0.031 0.036 473.088-473.088c5.352-4.681 12.406-7.536 20.126-7.536s14.773 2.855 20.161 7.567l-0.036-0.031 473.088 473.088c5.303 5.447 8.995 12.488 10.289 20.337l0.030 0.221c-1.335 7.901-4.933 14.795-10.095 20.178l0.013-0.013c-5.352 4.681-12.406 7.536-20.126 7.536s-14.773-2.855-20.161-7.567l0.036 0.031z" />
<glyph unicode="&#xe903;" glyph-name="Bell" d="M950.857 179.81h-877.714c-9.752 0-19.505 4.876-24.381 19.505s0 19.505 9.752 29.257c0 0 136.533 97.524 136.533 419.352 0 175.543 141.41 316.952 316.952 316.952s316.952-141.41 316.952-316.952c0-321.829 136.533-419.352 136.533-419.352 9.752-4.876 14.629-19.505 9.752-29.257-4.876-14.629-14.629-19.505-24.381-19.505zM131.657 228.571h760.686c-48.762 58.514-112.152 185.295-112.152 414.476 0 146.286-121.905 268.19-268.19 268.19s-268.19-121.905-268.19-268.19c0-229.181-63.39-355.962-112.152-414.476zM512-64c-19.505 0-43.886 4.876-58.514 14.629-19.505 9.752-34.133 24.381-43.886 43.886-9.752 14.629-4.876 29.257 4.876 34.133s24.381 4.876 34.133-9.752c4.876-9.752 14.629-19.505 24.381-24.381 34.133-19.505 78.019-9.752 102.4 24.381 4.876 9.752 19.505 14.629 34.133 9.752 9.752-4.876 14.629-19.505 9.752-34.133-24.381-34.133-63.39-58.514-107.276-58.514z" />
<glyph unicode="&#xe904;" glyph-name="Calender" d="M916.48 832h-66.56v51.2c0 15.36-10.24 25.6-25.6 25.6s-25.6-10.24-25.6-25.6v-51.2h-261.12v51.2c0 15.36-10.24 25.6-25.6 25.6s-25.6-10.24-25.6-25.6v-51.2h-266.24v51.2c0 15.36-10.24 25.6-25.6 25.6s-25.6-10.24-25.6-25.6v-51.2h-61.44c-61.44 0-107.52-51.2-107.52-107.52v-619.52c0-56.32 46.080-107.52 107.52-107.52 0 0 0 0 0 0h808.96c56.32 0 107.52 46.080 107.52 107.52 0 0 0 0 0 0v619.52c0 56.32-46.080 107.52-107.52 107.52zM972.8 104.96c0-30.72-25.6-51.2-51.2-51.2h-814.080c-30.72 0-51.2 25.6-51.2 51.2 0 0 0 0 0 0v619.52c0 30.72 25.6 56.32 51.2 56.32h61.44v-40.96c0-15.36 10.24-25.6 25.6-25.6s25.6 10.24 25.6 25.6c0 0 0 0 0 0v35.84h266.24v-40.96c0-15.36 10.24-25.6 25.6-25.6s25.6 10.24 25.6 25.6c0 0 0 0 0 0v40.96h261.12v-40.96c0-15.36 10.24-25.6 25.6-25.6s25.6 10.24 25.6 25.6c0 0 0 0 0 0v40.96h66.56c30.72 0 51.2-25.6 51.2-56.32v-614.4zM440.32 604.467h-46.080c-15.36 0-25.6-10.24-25.6-25.6s10.24-25.6 25.6-25.6h46.080c15.36 0 30.72 10.24 30.72 25.6s-15.36 25.6-30.72 25.6zM625.971 604.467h-46.080c-15.36 0-25.6-10.24-25.6-25.6s10.24-25.6 25.6-25.6h46.080c15.36 0 30.72 10.24 30.72 25.6s-15.36 25.6-30.72 25.6zM813.21 604.467h-46.080c-15.36 0-25.6-10.24-25.6-25.6s10.24-25.6 25.6-25.6h46.080c15.36 0 30.72 10.24 30.72 25.6s-15.36 25.6-30.72 25.6zM440.32 420.403h-46.080c-15.36 0-25.6-10.24-25.6-25.6s10.24-25.6 25.6-25.6h46.080c15.36 0 30.72 10.24 30.72 25.6s-15.36 25.6-30.72 25.6zM253.030 420.403h-46.080c-15.36 0-25.6-10.24-25.6-25.6s10.24-25.6 25.6-25.6h46.080c15.36 0 30.72 10.24 30.72 25.6s-15.36 25.6-30.72 25.6zM625.971 420.403h-46.080c-15.36 0-25.6-10.24-25.6-25.6s10.24-25.6 25.6-25.6h46.080c15.36 0 30.72 10.24 30.72 25.6s-15.36 25.6-30.72 25.6zM813.21 420.403h-46.080c-15.36 0-25.6-10.24-25.6-25.6s10.24-25.6 25.6-25.6h46.080c15.36 0 30.72 10.24 30.72 25.6s-15.36 25.6-30.72 25.6zM440.32 239.002h-46.080c-15.36 0-25.6-10.24-25.6-25.6s10.24-25.6 25.6-25.6c0 0 0 0 0 0h46.080c15.36 0 30.72 10.24 30.72 25.6s-15.36 25.6-30.72 25.6c0 0 0 0 0 0zM253.030 239.002h-46.080c-15.36 0-25.6-10.24-25.6-25.6s10.24-25.6 25.6-25.6h46.080c15.36 0 30.72 10.24 30.72 25.6s-15.36 25.6-30.72 25.6zM625.971 239.002h-46.080c-15.36 0-25.6-10.24-25.6-25.6s10.24-25.6 25.6-25.6h46.080c15.36 0 30.72 10.24 30.72 25.6s-15.36 25.6-30.72 25.6c0 0 0 0 0 0z" />
<glyph unicode="&#xe905;" glyph-name="Campaign" d="M164.978 248.889c-79.644 5.689-147.911 62.578-164.978 147.911-5.689 45.511 0 96.711 11.378 142.222 17.067 73.956 85.333 125.156 159.289 130.844 73.956 0 153.6 0 227.556 0 102.4 0 204.8 22.756 295.822 73.956 56.889 28.444 108.089 62.578 159.289 96.711 5.689 5.689 11.378 5.689 17.067 11.378 17.067 5.689 34.133-5.689 39.822-22.756 0-5.689 0-5.689 0-11.378 0-34.133 0-68.267 0-96.711 0-39.822 0-73.956 0-113.778 0-5.689 5.689-11.378 11.378-17.067 0 0 0 0 0 0 73.956-22.756 113.778-96.711 91.022-170.667-5.689-17.067-11.378-34.133-22.756-45.511-17.067-22.756-39.822-39.822-62.578-45.511-5.689 0-11.378-5.689-11.378-17.067 0 0 0 0 0 0 0-68.267 0-136.533 0-204.8 0-22.756-11.378-34.133-34.133-34.133-5.689 0-17.067 5.689-22.756 11.378-79.644 85.333-182.044 142.222-301.511 153.6-62.578 11.378-352.711 11.378-392.533 11.378zM847.644 755.2c-284.444-153.6-221.867-125.156-500.622-153.6v-295.822c182.044 5.689 352.711-17.067 500.622-136.533v585.956zM284.444 601.6c-39.822 0-79.644 0-119.467 0-51.2 0-96.711-45.511-102.4-96.711 0-28.444 0-62.578 0-91.022 5.689-45.511 34.133-79.644 73.956-96.711 17.067-5.689 22.756-5.689 34.133-5.689 39.822 0 73.956 0 113.778 0v290.133zM910.222 391.111c28.444 11.378 45.511 39.822 45.511 68.267s-17.067 51.2-45.511 62.578v-130.844z" />
<glyph unicode="&#xe906;" glyph-name="Cancel" d="M874.753 810.753c-95.352 95.352-228.016 149.247-360.68 149.247 0 0 0 0 0 0v0c-281.911 0-509.927-232.162-509.927-509.927 0-136.81 53.895-265.328 149.247-360.68s223.87-149.247 356.534-149.247c0 0 0 0 4.146 0 136.81 0 265.328 53.895 360.68 149.247s149.247 223.87 149.247 360.68c0 136.81-53.895 265.328-149.247 360.68zM845.733 122.559c-87.061-87.061-203.142-136.81-331.66-136.81-124.372 0-244.599 45.603-331.66 136.81-87.061 87.061-136.81 203.142-136.81 331.66 0 124.372 45.603 244.599 136.81 331.66 87.061 82.915 203.142 132.664 327.514 132.664s244.599-49.749 331.66-136.81c87.061-87.061 136.81-203.142 136.81-327.514 4.146-124.372-45.603-244.599-132.664-331.66zM679.903 620.049c-16.583 16.583-41.457 16.583-58.040 0l-111.935-111.935-107.789 111.935c-16.583 16.583-41.457 16.583-58.040 0s-16.583-41.457 0-58.040l111.935-111.935-116.081-111.935c-16.583-16.583-16.583-41.457 0-58.040 8.291-8.291 20.729-12.437 29.020-12.437s20.729 4.146 29.020 12.437l111.935 111.935 111.935-111.935c8.291-8.291 20.729-12.437 29.020-12.437s20.729 4.146 29.020 12.437c16.583 16.583 16.583 41.457 0 58.040l-111.935 111.935 111.935 111.935c16.583 12.437 16.583 41.457 0 58.040z" />
<glyph unicode="&#xe907;" glyph-name="checked-01" d="M312.32 197.12c5.12 5.12 5.12 10.24 10.24 15.36 199.68 199.68 399.36 399.36 599.040 599.040 10.24 15.36 30.72 20.48 51.2 20.48 25.6-5.12 46.080-30.72 40.96-56.32 0-10.24-5.12-15.36-10.24-25.6-5.12-5.12-5.12-10.24-10.24-10.24l-640-640c-15.36-25.6-51.2-30.72-76.8-15.36-5.12 5.12-10.24 10.24-15.36 15.36-81.92 92.16-163.84 179.2-245.76 271.36-20.48 20.48-20.48 51.2-5.12 71.68 0 0 5.12 5.12 5.12 5.12 20.48 15.36 46.080 15.36 61.44 0 5.12-5.12 10.24-10.24 10.24-10.24 66.56-76.8 138.24-148.48 204.8-225.28 15.36-5.12 15.36-5.12 20.48-15.36z" />
<glyph unicode="&#xe908;" glyph-name="Dashboard" d="M732.16 519.68l-250.88-220.16c-15.36-15.36-15.36-46.080 0-61.44 10.24-10.24 20.48-10.24 30.72-10.24s20.48 5.12 30.72 15.36l220.16 250.88c5.12 10.24 5.12 20.48 0 30.72-10.24 0-20.48 0-30.72-5.12zM512 780.8c-281.6 0-512-230.4-512-512 0-51.2 10.24-107.52 25.6-153.6 5.12-10.24 10.24-15.36 20.48-15.36h936.96c10.24 0 15.36 5.12 20.48 15.36 81.92 266.24-66.56 552.96-337.92 640-46.080 15.36-102.4 25.6-153.6 25.6zM916.48 248.32h61.44c0-35.84-5.12-71.68-15.36-107.52h-901.12c-10.24 35.84-15.36 71.68-15.36 107.52h61.44c10.24 0 20.48 10.24 20.48 20.48s-10.24 20.48-20.48 20.48c0 0 0 0 0 0h-61.44c5.12 66.56 20.48 133.12 51.2 194.56l56.32-30.72c10.24-5.12 25.6 0 30.72 10.24s0 20.48-5.12 30.72l-61.44 25.6c35.84 56.32 87.040 107.52 143.36 143.36l30.72-56.32c5.12-10.24 20.48-15.36 30.72-10.24s15.36 20.48 10.24 30.72l-35.84 56.32c61.44 30.72 128 51.2 194.56 51.2v-61.44c0-10.24 10.24-20.48 20.48-20.48s20.48 10.24 20.48 20.48v61.44c66.56-5.12 133.12-20.48 194.56-51.2l-30.72-56.32c-5.12-10.24 0-25.6 10.24-30.72s25.6 0 30.72 10.24l30.72 56.32c56.32-35.84 102.4-87.040 138.24-143.36l-56.32-30.72c-10.24-5.12-15.36-20.48-5.12-30.72 5.12-10.24 20.48-15.36 30.72-5.12l56.32 30.72c30.72-61.44 51.2-128 51.2-194.56h-61.44c-10.24 0-20.48-10.24-20.48-20.48s0-20.48 15.36-20.48c0 0 0 0 0 0v0z" />
<glyph unicode="&#xe909;" glyph-name="Dots" d="M609.28 847.36c0-62.209-50.431-112.64-112.64-112.64s-112.64 50.431-112.64 112.64c0 62.209 50.431 112.64 112.64 112.64s112.64-50.431 112.64-112.64zM609.28 448c0-62.209-50.431-112.64-112.64-112.64s-112.64 50.431-112.64 112.64c0 62.209 50.431 112.64 112.64 112.64s112.64-50.431 112.64-112.64zM609.28 48.64c0-62.209-50.431-112.64-112.64-112.64s-112.64 50.431-112.64 112.64c0 62.209 50.431 112.64 112.64 112.64s112.64-50.431 112.64-112.64z" />
<glyph unicode="&#xe90a;" glyph-name="facebook-new" horiz-adv-x="570" d="M446.009 933.199c16.687-1.264 33.375-2.528 50.062-3.793 10.366-0.759 20.733-2.023 31.099-2.781 0-51.832 0-102.4 0-154.485-4.298 0-8.344 0-12.136 0-32.869-0.506-65.738 0.506-98.355-2.023-35.145-2.528-55.878-20.733-58.153-56.13-3.034-47.787-0.759-95.826-0.759-144.877 50.821 0 102.653 0 155.243 0-7.332-57.9-14.412-114.789-21.491-172.437-45.005 0-89.505 0-135.016 0 0-144.877 0-289.248 0-433.873-58.153 0-115.295 0-172.942 0 0 144.371 0 288.237 0 433.114-47.028 0-93.298 0-140.326 0 0 57.9 0 114.789 0 172.689 46.017 0 92.286 0 140.073 0 0 4.551 0 8.091 0 11.883 0.506 50.821-1.011 101.894 1.77 152.462 3.287 59.67 23.767 112.766 70.795 152.968 31.605 26.801 69.025 40.201 109.48 45.258 3.034 0.253 6.068 1.264 9.102 2.023 23.514 0 47.534 0 71.554 0z" />
<glyph unicode="&#xe90b;" glyph-name="Group-1" d="M441.108 424.369l-448.985 456.862c-7.877 7.877-31.508 7.877-39.385 0s-7.877-31.508 0-39.385l472.615-472.615c7.877-7.877 31.508-7.877 39.385 0l472.615 472.615c7.877 7.877 7.877 7.877 7.877 15.754s-7.877 15.754-7.877 23.631c-7.877 7.877-31.508 7.877-39.385 0l-456.862-456.862z" />
<glyph unicode="&#xe90c;" glyph-name="Group-12335" d="M710.949 14.994c20.48 11.703 76.069 52.663 93.623 67.291 26.331 20.48 49.737 46.811 70.217 70.217 61.44 84.846 105.326 178.469 125.806 280.869 17.554 76.069 23.406 155.063 20.48 234.057-11.703 105.326-90.697 190.171-193.097 210.651-32.183 5.851-64.366 5.851-96.549 0-46.811-8.777-90.697-32.183-122.88-67.291-46.811-43.886-70.217-105.326-70.217-169.691 0-26.331 2.926-52.663 11.703-76.069 32.183-99.474 122.88-166.766 228.206-166.766 23.406 0 46.811 2.926 67.291 8.777 14.629 2.926 14.629 5.851 5.851-29.257-23.406-102.4-64.366-198.949-117.029-289.646-52.663-84.846-55.589-93.623-23.406-73.143zM166.766 9.143c35.109 20.48 67.291 43.886 96.549 67.291 38.034 29.257 70.217 64.366 96.549 105.326 76.069 111.177 122.88 277.943 122.88 441.783 2.926 23.406 0 46.811-2.926 70.217-23.406 117.029-128.731 198.949-245.76 193.097-58.514-2.926-117.029-26.331-157.989-67.291-38.034-38.034-64.366-87.771-70.217-140.434-8.777-46.811 0-96.549 20.48-140.434 32.183-67.291 96.549-117.029 169.691-131.657 38.034-5.851 76.069-5.851 114.103 5.851 2.926 0 5.851 2.926 8.777 2.926-2.926-17.554-5.851-32.183-8.777-49.737-26.331-96.549-64.366-190.171-117.029-277.943-14.629-23.406-29.257-49.737-38.034-76.069 0-5.851 2.926-5.851 11.703-2.926z" />
<glyph unicode="&#xe90d;" glyph-name="Icon-awesome-twitter" d="M303.407 45.985c-109.985 0-212.385 30.341-303.407 91.022l15.17 41.719c15.17 0 30.341-3.793 41.719-3.793 0 0 0 0 0 0 60.681 0 121.363 15.17 174.459 45.511-64.474 18.963-117.57 72.059-140.326 140.326l-11.378 34.133 22.756-3.793c-49.304 37.926-79.644 98.607-79.644 166.874v37.926l34.133-15.17c0 0 0 0 0 0-41.719 64.474-45.511 151.704-3.793 223.763l22.756 30.341 18.963-26.548c87.23-106.193 212.385-174.459 348.919-189.63 0 7.585 0 11.378 0 18.963 0 56.889 22.756 109.985 64.474 151.704s94.815 64.474 151.704 64.474c0 0 0 0 0 0 53.096 0 106.193-22.756 147.911-56.889 37.926 7.585 72.059 22.756 102.4 41.719l49.304 26.548-18.963-56.889c-7.585-18.963-15.17-41.719-30.341-56.889 7.585 3.793 15.17 7.585 22.756 11.378l72.059 30.341-45.511-64.474c-26.548-37.926-56.889-68.267-91.022-98.607 0-3.793 0-7.585 0-15.17 0-151.704-56.889-292.030-163.081-398.222-98.607-109.985-242.726-166.874-390.637-170.667h-11.378c3.793 0 3.793 0 0 0zM102.4 133.215c64.474-26.548 132.741-41.719 201.007-41.719 0 0 0 0 0 0h7.585c136.533 0 269.274 56.889 364.089 155.496 98.607 98.607 151.704 227.556 147.911 367.881 0 0 0 0 0 3.793h-49.304l56.889 41.719c15.17 11.378 26.548 22.756 41.719 34.133-11.378-3.793-26.548-3.793-37.926-7.585l-15.17 41.719c15.17 7.585 30.341 22.756 41.719 34.133-18.963-7.585-41.719-15.17-64.474-18.963l-11.378-3.793-3.793 11.378c-30.341 34.133-75.852 53.096-121.363 53.096 0 0 0 0 0 0-45.511 0-87.23-18.963-117.57-49.304s-49.304-75.852-49.304-117.57c0-11.378 0-26.548 3.793-37.926l7.585-30.341h-30.341c-151.704 7.585-292.030 75.852-390.637 182.044-22.756-72.059 0-151.704 64.474-197.215l68.267-45.511-79.644 7.585c-18.963 0-41.719 3.793-60.681 11.378 15.17-64.474 64.474-117.57 132.741-132.741v-45.511c-18.963-3.793-37.926-7.585-56.889-7.585 30.341-49.304 83.437-83.437 144.119-83.437h64.474l-49.304-37.926c-60.681-49.304-132.741-79.644-208.593-87.23z" />
<glyph unicode="&#xe90e;" glyph-name="Icon-feather-check" d="M370.215 77.785c-15.754 0-39.385 7.877-55.138 23.631l-259.938 259.938c-31.508 31.508-31.508 78.769 0 110.277s78.769 31.508 110.277 0l204.8-204.8 512 512c31.508 31.508 78.769 31.508 110.277 0s31.508-78.769 0-110.277l-567.138-567.138c-15.754-15.754-31.508-23.631-55.138-23.631z" />
<glyph unicode="&#xe90f;" glyph-name="Icon-feather-facebook" d="M572.509-40.727h-186.182c-18.618 0-37.236 13.964-37.236 37.236v339.782h-102.4c-18.618 0-37.236 13.964-37.236 37.236v186.182c0 13.964 13.964 27.927 37.236 27.927h102.4v102.4c0 148.945 121.018 269.964 269.964 269.964h139.636c18.618 0 37.236-13.964 37.236-37.236v-186.182c0-18.618-13.964-37.236-37.236-37.236h-139.636c-4.655 0-13.964-4.655-13.964-13.964v-97.745h153.6c9.309 0 18.618-4.655 27.927-13.964 4.655-9.309 9.309-18.618 4.655-27.927l-46.545-186.182c-4.655-13.964-18.618-27.927-32.582-27.927h-107.055v-339.782c0-18.618-13.964-32.582-32.582-32.582zM418.909 29.091h116.364v339.782c0 18.618 13.964 32.582 37.236 32.582h111.709l27.927 116.364h-139.636c-23.273 0-37.236 13.964-37.236 32.582v139.636c0 46.545 37.236 83.782 83.782 83.782h102.4v116.364h-102.4c-107.055 0-200.145-88.436-200.145-200.145v-139.636c0-18.618-13.964-37.236-37.236-37.236h-102.4v-111.709h107.055c18.618 0 37.236-13.964 37.236-37.236v-335.127z" />
<glyph unicode="&#xe910;" glyph-name="Icon-feather-linkedin" d="M1010.036-50.036h-195.491c-13.964 0-27.927 13.964-27.927 27.927v344.436c0 37.236-32.582 69.818-69.818 69.818s-69.818-32.582-69.818-69.818v-344.436c0-13.964-13.964-27.927-27.927-27.927h-200.145c-13.964 0-27.927 13.964-27.927 27.927v344.436c0 176.873 144.291 321.164 321.164 321.164s321.164-144.291 321.164-321.164v-344.436c4.655-13.964-9.309-27.927-23.273-27.927zM837.818 5.818h139.636v316.509c0 148.945-121.018 265.309-265.309 265.309s-265.309-121.018-265.309-265.309v-316.509h139.636v316.509c0 69.818 55.855 125.673 125.673 125.673s125.673-55.855 125.673-125.673v-316.509zM223.418-50.036h-195.491c-13.964 0-27.927 13.964-27.927 27.927v586.473c0 18.618 13.964 27.927 27.927 27.927h195.491c13.964 0 27.927-13.964 27.927-27.927v-586.473c0-13.964-13.964-27.927-27.927-27.927zM55.855 5.818h139.636v530.618h-139.636v-530.618zM125.673 685.382c-69.818 0-125.673 55.855-125.673 125.673s55.855 125.673 125.673 125.673c0 0 0 0 0 0 69.818 0 125.673-55.855 125.673-125.673 0 0 0 0 0 0 0-69.818-55.855-125.673-125.673-125.673zM125.673 880.873c0 0 0 0 0 0-37.236 0-69.818-32.582-69.818-69.818s32.582-69.818 69.818-69.818c37.236 0 69.818 32.582 69.818 69.818 0 18.618-9.309 37.236-18.618 51.2-13.964 9.309-32.582 18.618-51.2 18.618z" />
<glyph unicode="&#xe911;" glyph-name="Icon-ionic-logo-instagram" d="M725.35 874.65c117.69-0.348 213.002-95.661 213.35-213.317v-426.683c-0.348-117.69-95.661-213.002-213.317-213.35h-426.734c-117.69 0.348-213.002 95.661-213.35 213.317v426.734c0.348 117.69 95.661 213.002 213.317 213.35h426.683zM725.299 960.051h-426.65c-164.759-0.494-298.185-133.938-298.65-298.656v-426.695c0.464-164.763 133.891-298.207 298.602-298.701h426.697c164.763 0.464 298.207 133.891 298.701 298.602v426.748c-0.494 164.741-133.909 298.156-298.603 298.649h-0.047zM789.35 661.35c-35.346 0-64 28.654-64 64s28.654 64 64 64c35.346 0 64-28.654 64-64v0c0-0.046 0-0.1 0-0.154 0-35.261-28.585-63.846-63.846-63.846-0.054 0-0.108 0-0.162 0h0.008zM512 618.65c94.247 0 170.65-76.402 170.65-170.65s-76.402-170.65-170.65-170.65c-94.247 0-170.65 76.402-170.65 170.65v0c0.087 94.212 76.438 170.562 170.641 170.65h0.008zM512 704c-141.385 0-256-114.615-256-256s114.615-256 256-256c141.385 0 256 114.615 256 256v0c0 141.385-114.615 256-256 256v0z" />
<glyph unicode="&#xe912;" glyph-name="time-left-01" horiz-adv-x="1032" d="M0.129 472.287c2.584 19.894 4.651 39.875 7.837 59.64 10.106 60.227 29.658 114.189 57.262 162.997l-1.282-2.464c38.781 69.938 90.926 127.957 153.433 172.338l1.588 1.071c82.656 58.662 185.607 93.778 296.759 93.778 102.362 0 197.768-29.781 278.027-81.151l-2.069 1.239 11.454-7.019c10.076 14.555 19.765 28.636 29.583 42.631 2.117 3.233 4.401 6.051 6.938 8.618l-0.005-0.005c1.827 2.4 4.685 3.933 7.902 3.933 4.271 0 7.91-2.703 9.3-6.491l0.022-0.069c1.402-2.688 2.597-5.813 3.423-9.085l0.065-0.302q17.914-63.86 35.655-127.763c6.115-22.004-2.799-33.932-25.837-35.87-42.803-3.617-85.563-7.622-128.323-11.497-0.713-0.177-1.531-0.278-2.373-0.278-0.226 0-0.45 0.007-0.672 0.022l0.030-0.002c-6.201 1.593-15.158 1.464-17.655 5.555s0.775 12.617 3.919 17.741c9.301 15.071 19.851 29.325 30.143 44.439-26.663 18.274-57.229 34.124-89.69 46.050l-2.892 0.93c-43.578 16.149-93.916 25.493-146.437 25.493-205.244 0-377.16-142.692-421.956-334.283l-0.577-2.931c-6.72-27.898-10.574-59.928-10.574-92.859 0-20.516 1.496-40.683 4.385-60.397l-0.269 2.239c14.38-115.032 72.871-214.191 157.722-281.598l0.873-0.669c52.751-42.703 116.944-73.416 187.247-86.981l2.697-0.433c21.013-2.238 37.239-19.87 37.239-41.291 0-22.926-18.585-41.511-41.511-41.511-3.186 0-6.289 0.359-9.269 1.039l0.279-0.053c-159.386 29.456-290.714 129.354-362.482 265.519l-1.343 2.796c-31.703 58.103-52.238 126.53-56.897 199.275l-0.073 1.434c-0.444 2.952-1.060 5.553-1.865 8.069l0.1-0.361zM457.011 583.213v160.145c-0.027 0.502-0.042 1.090-0.042 1.681 0 18.431 14.941 33.373 33.373 33.373 18.356 0 33.251-14.82 33.372-33.148v-0.012c0.344-25.148 0-50.339 0-75.53q0-103.735 0-207.47c-0.063-0.496-0.099-1.071-0.099-1.654 0-5.809 3.561-10.786 8.618-12.867l0.093-0.034q128.409-65.97 256.474-132.5c13.34-4.623 22.747-17.081 22.747-31.736 0-18.508-15.004-33.512-33.512-33.512-3.853 0-7.555 0.65-11.001 1.847l0.235-0.071c-4.676 1.692-8.61 3.492-12.373 5.564l0.445-0.225q-144.772 74.798-289.545 149.466c-5.425 2.211-9.179 7.445-9.179 13.555 0 0.702 0.050 1.392 0.145 2.068l-0.009-0.078c0.431 53.698 0.258 107.395 0.258 161.136zM835.865 136.924v0.99c5.243 31.052 28.506 55.501 58.476 62.424l0.518 0.101c0.216 0.004 0.472 0.007 0.728 0.007 22.474 0 40.693-18.219 40.693-40.693 0-7.59-2.078-14.695-5.697-20.777l0.103 0.187c-7.742-12.427-16.435-23.188-26.274-32.777l-0.036-0.035c-6.813-7.041-16.349-11.413-26.905-11.413-6.144 0-11.941 1.481-17.056 4.104l0.211-0.098c-14.656 6.073-24.777 20.264-24.777 36.819 0 0.408 0.006 0.815 0.018 1.22l-0.001-0.059zM623.873 25.094c1.448 0.173 3.125 0.271 4.824 0.271 20.32 0 37.352-14.074 41.881-33.006l0.059-0.293c0.544-2.494 0.856-5.359 0.856-8.296 0-17.938-11.618-33.162-27.74-38.557l-0.287-0.083c-10.874-3.55-23.793-6.462-37.083-8.192l-1.112-0.118c-1.241-0.135-2.68-0.213-4.137-0.213-19.061 0-35.034 13.217-39.257 30.986l-0.055 0.274c-0.929 3.202-1.463 6.881-1.463 10.685 0 16.711 10.313 31.014 24.923 36.89l0.267 0.095c10.214 3.39 23.094 6.699 36.252 9.228l2.072 0.332zM1009.617 299.352c-2.972-18.715-9.54-35.457-18.998-50.164l0.31 0.514c-7.351-9.57-18.799-15.678-31.673-15.678-5.87 0-11.444 1.27-16.461 3.55l0.25-0.102c-14.836 5.776-25.158 19.948-25.158 36.53 0 2.523 0.239 4.989 0.695 7.379l-0.039-0.244c3.559 15.841 8.432 29.739 14.687 42.851l-0.52-1.211c6.813 12.903 20.143 21.547 35.492 21.547 3.782 0 7.441-0.525 10.909-1.505l-0.282 0.068c17.965-5.215 30.874-21.524 30.874-40.848 0-0.946-0.031-1.884-0.092-2.814l0.007 0.126zM962.293 551.95c-15.459 0.576-28.503 10.327-33.886 23.944l-0.089 0.257c-4.105 9.137-8.253 20.46-11.678 32.092l-0.508 2.012c-0.898 3.179-1.415 6.831-1.415 10.603 0 16.719 10.147 31.068 24.619 37.225l0.264 0.1c4.878 2.308 10.598 3.656 16.632 3.656 14.487 0 27.159-7.767 34.080-19.364l0.1-0.181c6.887-12.709 12.439-27.435 15.891-42.952l0.214-1.143c0.224-1.611 0.352-3.472 0.352-5.363 0-22.664-18.373-41.038-41.038-41.038-1.246 0-2.478 0.056-3.696 0.164l0.157-0.011zM948.643 447.871c0 5.038 0 10.033 0 15.071 0.098 21.837 17.13 39.664 38.635 41.031l0.12 0.006c0.836 0.061 1.811 0.096 2.794 0.096 20.676 0 37.739-15.47 40.247-35.466l0.020-0.199c0.867-6.485 1.362-13.981 1.362-21.593 0-6.851-0.401-13.609-1.18-20.251l0.077 0.806c-2.741-19.952-19.677-35.156-40.164-35.156-0.428 0-0.855 0.007-1.28 0.020l0.062-0.002c-21.808 0.494-39.416 17.803-40.388 39.442l-0.003 0.089c-0.301 5.34 0 10.722 0 16.062zM777.129 91.107c18.134-0.633 33.393-12.275 39.347-28.42l0.097-0.301c1.585-4.113 2.503-8.871 2.503-13.844 0-12.716-6.004-24.029-15.332-31.26l-0.090-0.067c-9.91-7.565-21.109-14.49-32.965-20.278l-1.183-0.521c-5.084-2.504-11.067-3.969-17.393-3.969-15.223 0-28.464 8.485-35.253 20.983l-0.105 0.211c-3.326 5.757-5.288 12.662-5.288 20.026 0 14.186 7.282 26.671 18.312 33.921l0.153 0.095c7.997 5.67 17.233 11.381 26.819 16.524l1.429 0.7c5.363 2.426 11.687 4.557 18.25 6.066l0.697 0.135z" />
<glyph unicode="&#xe913;" glyph-name="Level" d="M853.333-64c-34.133 0-56.889 22.756-56.889 56.889v568.889c0 34.133 22.756 56.889 56.889 56.889s56.889-22.756 56.889-56.889v-568.889c0-34.133-22.756-56.889-56.889-56.889zM512-64c-34.133 0-56.889 22.756-56.889 56.889v910.222c0 34.133 22.756 56.889 56.889 56.889s56.889-22.756 56.889-56.889v-910.222c0-34.133-22.756-56.889-56.889-56.889zM170.667-64c-34.133 0-56.889 22.756-56.889 56.889v341.333c0 34.133 22.756 56.889 56.889 56.889s56.889-22.756 56.889-56.889v-341.333c0-34.133-22.756-56.889-56.889-56.889z" />
<glyph unicode="&#xe914;" glyph-name="list" d="M1003.52 488.96h-962.56c0 0 0 0 0 0-10.24 0-20.48-5.12-25.6-10.24-10.24-5.12-15.36-15.36-15.36-25.6 0-20.48 15.36-40.96 40.96-40.96h967.68c10.24 0 20.48 5.12 25.6 10.24s10.24 15.36 10.24 25.6c0 25.6-15.36 40.96-40.96 40.96zM1003.52 151.040h-962.56c-10.24 0-20.48-5.12-25.6-10.24-10.24-10.24-15.36-20.48-15.36-30.72 0-20.48 15.36-40.96 40.96-40.96h967.68c10.24 0 20.48 5.12 25.6 10.24s10.24 15.36 10.24 25.6c0 25.6-15.36 46.080-40.96 46.080zM40.96 755.2h967.68c10.24 0 20.48 5.12 25.6 10.24s10.24 15.36 10.24 25.6c0 20.48-15.36 40.96-40.96 40.96h-962.56c-10.24 0-20.48-5.12-30.72-10.24-5.12-10.24-10.24-20.48-10.24-30.72 0-20.48 15.36-35.84 40.96-35.84z" />
<glyph unicode="&#xe915;" glyph-name="Path-4" d="M512 960c-282.77 0-512-229.23-512-512s229.23-512 512-512c282.77 0 512 229.23 512 512v0c0 282.77-229.23 512-512 512v0zM745.779 560.64q0.358-7.578 0.358-15.36c0.005-0.672 0.008-1.466 0.008-2.262 0-183.32-148.61-331.93-331.93-331.93-0.849 0-1.697 0.003-2.544 0.010l0.13-0.001c-66.899 0.005-129.186 19.749-181.355 53.725l1.284-0.784c8.387-1.043 18.094-1.638 27.94-1.638 0.023 0 0.047 0 0.070 0h-0.004c0.104 0 0.228 0 0.351 0 55.184 0 105.941 18.954 146.116 50.708l-0.496-0.378c-51.145 0.936-94.248 34.338-109.635 80.423l-0.241 0.831c6.666-1.346 14.328-2.117 22.169-2.117 10.948 0 21.544 1.502 31.596 4.31l-0.824-0.197c-54.054 11.348-94.072 58.589-94.157 115.191v1.852c15.334-8.7 33.574-14.073 53.014-14.69l0.183-0.005c-31.73 21.429-52.316 57.261-52.316 97.901 0 21.739 5.89 42.102 16.162 59.58l-0.3-0.553c58.199-71.252 144.314-117.804 241.412-122.846l0.815-0.034c-1.87 7.861-2.943 16.886-2.943 26.161 0 65.037 52.723 117.76 117.76 117.76 33.632 0 63.97-14.099 85.428-36.708l0.049-0.052c28.139 5.694 53.128 15.62 75.656 29.213l-1.057-0.592c-9.102-27.716-27.388-50.317-51.187-64.729l-0.525-0.295c25.034 3.021 47.83 9.53 68.958 19.080l-1.476-0.597c-16.035-23.907-35.438-44.109-57.803-60.512l-0.668-0.467z" />
<glyph unicode="&#xe916;" glyph-name="Path-14" d="M1024 448c0 282.77-229.23 512-512 512s-512-229.23-512-512c0-282.77 229.23-512 512-512v0h9.011v398.746h-110.080v128h109.978v94.72c-0.496 4.637-0.779 10.017-0.779 15.463 0 85.001 68.907 153.907 153.907 153.907 3.95 0 7.864-0.149 11.739-0.441l-0.516 0.031c0.721 0.002 1.574 0.003 2.428 0.003 33.881 0 67.328-1.861 100.243-5.486l-4.060 0.363v-114.586h-67.072c-52.941 0-63.539-25.242-63.539-62.259v-81.459h126.925l-16.538-128h-110.387v-378.88c215.754 63.383 370.622 259.529 370.739 491.864v0.014z" />
<glyph unicode="&#xe917;" glyph-name="Path-14926" d="M949.486 959.93h-872.515c-0.764 0.028-1.661 0.044-2.562 0.044-41.095 0-74.409-33.314-74.409-74.409 0-0.016 0-0.031 0-0.047v0.002-875.077c0-0.013 0-0.029 0-0.044 0-41.095 33.314-74.409 74.409-74.409 0.901 0 1.798 0.016 2.692 0.048l-0.129-0.004h872.515c41.095 0 74.409 33.314 74.409 74.409v0 875.077c0 41.095-33.314 74.409-74.409 74.409v0zM305.357 87.45h-153.942v487.554h153.942zM228.386 641.726c-48.49 1.427-87.255 41.077-87.255 89.781 0 0.013 0 0.026 0 0.039v-0.002c0 48.19 39.065 87.255 87.255 87.255s87.255-39.065 87.255-87.255v0c0-0.011 0-0.024 0-0.037 0-48.704-38.765-88.353-87.124-89.778l-0.131-0.003zM872.515 87.45h-151.415v238.67c0 56.438 0 128.32-79.568 128.32s-89.817-61.598-89.817-125.758v-241.232h-151.38v487.554h143.693v-66.687h2.562c28.005 47.963 79.228 79.677 137.859 79.677 2.064 0 4.12-0.039 6.165-0.117l-0.295 0.009c153.977 0 182.197-100.066 182.197-233.511z" />
<glyph unicode="&#xe918;" glyph-name="Path-14928" d="M1028.995 775.83c-35.342-16.578-76.347-28.848-119.388-34.718l-2.219-0.248c43.49 26.889 76.379 67.352 93.067 115.393l0.466 1.543c-38.356-21.434-82.763-39.089-129.567-50.669l-3.728-0.78c-38.858 40.88-93.639 66.31-154.359 66.31-116.183 0-210.621-93.101-212.779-208.768l-0.003-0.202c0.036-17.507 2.597-34.403 7.339-50.36l-0.321 1.258c-175.584 9.36-330.069 92.438-434.256 218.589l-0.819 1.021c-19.002-29.857-30.315-66.223-30.395-105.226v-0.021c0-0.038 0-0.083 0-0.128 0-73.266 37.854-137.69 95.070-174.783l0.811-0.493c-0.066 0-0.145 0-0.224 0-35.236 0-68.226 9.622-96.484 26.381l0.876-0.481c-0.022-1.138-0.035-2.481-0.035-3.826 0-100.902 71.798-185.036 167.092-204.099l1.329-0.222c-16.685-5.489-35.92-8.878-55.876-9.361l-0.245-0.005-39.761 4.67c28.688-84.659 106.388-144.953 198.501-147.35l0.28-0.006c-71.16-55.427-161.821-88.866-260.292-88.866-0.572 0-1.144 0.001-1.715 0.003h-51.362c90.605-60.095 201.871-95.883 321.495-95.883 0.436 0 0.872 0 1.308 0.001h-0.068c388.196 0 601.013 322.735 601.013 601.013v30.395c41.493 30.371 76.427 66.783 104.272 108.346l0.975 1.546z" />
<glyph unicode="&#xe919;" glyph-name="Path-14929" d="M759.938 943.893h-495.78c-136.505-1.21-246.841-111.545-248.050-247.935l-0.001-0.116v-495.78c1.21-136.505 111.545-246.841 247.935-248.050l0.116-0.001h495.78c136.505 1.21 246.841 111.545 248.050 247.935l0.001 0.116v495.78c-1.21 136.505-111.545 246.841-247.935 248.050l-0.116 0.001zM809.549 285.72c-5.027-6.259-10.997-11.511-17.741-15.616l-0.299-0.169-58.598-13.53-6.765-4.51c-0.98-4.445-1.779-9.841-2.226-15.336l-0.029-0.45v-4.51c0.048-0.428 0.076-0.925 0.076-1.428 0-2.834-0.871-5.464-2.361-7.638l0.030 0.046c-2.255-4.51-4.51-6.765-9.020-6.765h-72.128c-18.199-3.964-34.137-11.833-47.531-22.714l0.208 0.164c-21.734-18.237-50.011-29.315-80.875-29.315-0.096 0-0.192 0-0.288 0h-6.75c-31.236 0.607-59.59 12.47-81.281 31.685l0.132-0.115c-13.39 10.196-29.224 17.98-46.419 22.355l-0.904 0.195h-69.905c-0.277-0.024-0.599-0.038-0.925-0.038-4.61 0-8.574 2.767-10.322 6.731l-0.028 0.072c-2.407 3.869-4.021 8.469-4.5 13.401l-0.010 0.129c-1.367 5.198-3.701 9.728-6.819 13.6l0.054-0.070c0 2.491-2.019 4.51-4.51 4.51v0c-21.748 2.666-41.538 8.219-59.957 16.318l1.359-0.533c-7.346 2.83-13.456 7.489-17.967 13.43l-0.073 0.1 6.765 6.765c21.205 2.503 40.325 9.731 56.835 20.599l-0.492-0.304c15.074 9.791 27.785 21.783 38.058 35.687l0.278 0.393c14.043 14.916 24.878 33.020 31.297 53.098l0.273 0.99c3.614 5.066 5.777 11.383 5.777 18.205 0 3.156-0.463 6.204-1.325 9.079l0.058-0.224c-6.765 15.785-24.805 20.295-38.335 24.805h-2.255l-6.765 4.51c-7.983 1.932-14.861 5.88-20.298 11.278l0.003-0.003c-4.127 2.418-6.854 6.831-6.854 11.881 0 5.925 3.755 10.973 9.014 12.894l0.095 0.030c6.765 4.51 18.040 6.765 22.55 2.255 8.104-4.424 17.752-7.025 28.007-7.025 6.096 0 11.978 0.919 17.514 2.627l-0.42-0.112c11.275 6.765 4.51 4.51 4.51 6.765s-2.255 11.275-2.255 15.785v0c-1.573 12.495-2.471 26.954-2.471 41.623 0 28.406 3.367 56.026 9.722 82.482l-0.486-2.399c10.071 20.101 22.902 37.243 38.249 51.752l0.086 0.081c11.8 11.71 26.089 20.931 42.001 26.798l0.812 0.262c19.749 9.866 43.008 15.683 67.617 15.785h11.309c24.65-0.344 47.867-6.131 68.615-16.208l-0.965 0.423c16.536-6.732 30.726-15.867 42.904-27.144l-0.091 0.083c15.442-14.092 27.694-31.4 35.735-50.889l0.345-0.944c6.356-23.221 10.008-49.884 10.008-77.399 0-15.634-1.179-30.992-3.453-45.991l0.21 1.684v-9.020c0-3.676 1.759-6.941 4.482-8.999l0.028-0.021h13.53l27.060 9.020h20.295c8.279-1.012 14.773-7.506 15.776-15.698l0.009-0.087c0-2.255 0-4.51-4.51-11.275l-22.55-11.275h-9.020c-15.806-2.057-29.343-10.401-38.227-22.398l-0.108-0.153c-0.836-2.894-1.316-6.219-1.316-9.656 0-7.31 2.174-14.112 5.91-19.795l-0.084 0.136c24.053-53.036 70.641-92.225 127.201-105.698l1.271-0.255c2.751-2.079 4.51-5.344 4.51-9.020v0z" />
<glyph unicode="&#xe91a;" glyph-name="Path-37434" d="M512 960c-282.77 0-512-229.23-512-512s229.23-512 512-512c282.77 0 512 229.23 512 512v0c0 282.77-229.23 512-512 512v0zM363.213 186.010h-124.723v375.296h124.723zM300.851 612.352h-0.614c-1.203-0.079-2.607-0.125-4.022-0.125-35.883 0-64.973 29.089-64.973 64.973s29.089 64.973 64.973 64.973c1.939 0 3.857-0.085 5.753-0.251l-0.246 0.017c1.502 0.123 3.251 0.194 5.016 0.194 35.912 0 65.024-29.112 65.024-65.024s-29.112-65.024-65.024-65.024c-2.073 0-4.123 0.097-6.146 0.287l0.259-0.020zM812.851 186.010h-124.672v200.55c0 50.432-17.869 84.838-63.181 84.838-29.427-0.173-54.425-18.943-63.851-45.143l-0.149-0.476c-2.656-7.89-4.189-16.976-4.189-26.42 0-1.404 0.034-2.801 0.101-4.189l-0.008 0.196v-209.459h-124.672s1.638 339.917 0 375.296h124.723v-52.992c21.777 37.325 61.63 62.007 107.247 62.007 1.807 0 3.604-0.039 5.392-0.115l-0.255 0.009c82.227 0 143.36-53.606 143.36-168.96z" />
<glyph unicode="&#xe91b;" glyph-name="phone-call-01" d="M789.997-65.138h-44.247l-18.963 6.321c-18.963 6.321-31.605 6.321-50.568 12.642-50.568 12.642-94.815 37.926-139.062 63.21-120.099 69.531-227.556 164.346-322.37 271.802-63.21 63.21-120.099 139.062-158.025 221.235-25.284 50.568-44.247 107.457-56.889 164.346-6.321 37.926 0 82.173 18.963 120.099 6.321 12.642 18.963 25.284 25.284 37.926 12.642 12.642 31.605 25.284 44.247 44.247 12.642 12.642 25.284 25.284 37.926 37.926 50.568 50.568 126.42 50.568 176.988 0 44.247-44.247 88.494-88.494 132.741-126.42 25.284-25.284 37.926-50.568 37.926-82.173s-12.642-63.21-31.605-88.494l-6.321-6.321c-12.642-12.642-25.284-18.963-37.926-25.284-18.963-6.321-31.605-18.963-37.926-31.605s-6.321-25.284-6.321-31.605c18.963-44.247 37.926-88.494 75.852-120.099 31.605-37.926 75.852-69.531 120.099-94.815 12.642-12.642 31.605-12.642 50.568-12.642s37.926 12.642 44.247 31.605c6.321 25.284 25.284 50.568 50.568 63.21 50.568 31.605 113.778 25.284 151.704-18.963 44.247-44.247 88.494-88.494 132.741-132.741 50.568-50.568 44.247-126.42 0-176.988-18.963-18.963-37.926-37.926-56.889-56.889l-25.284-25.284c-25.284-25.284-56.889-37.926-94.815-44.247h-12.642zM752.071-1.928h31.605c0 0 6.321 0 6.321 0 25.284 0 44.247 12.642 56.889 25.284l25.284 25.284c18.963 18.963 37.926 37.926 56.889 56.889 25.284 25.284 25.284 63.21 0 88.494-44.247 44.247-88.494 88.494-132.741 132.741-12.642 25.284-44.247 25.284-63.21 12.642-12.642-6.321-18.963-18.963-25.284-31.605-18.963-44.247-56.889-69.531-101.136-75.852-31.605 0-63.21 6.321-88.494 18.963-50.568 25.284-94.815 63.21-132.741 107.457-44.247 37.926-75.852 88.494-88.494 145.383-6.321 25.284-6.321 50.568 6.321 75.852 12.642 31.605 44.247 56.889 75.852 69.531 6.321 0 12.642 6.321 18.963 12.642 6.321 12.642 12.642 25.284 12.642 37.926 0 18.963-6.321 31.605-18.963 44.247-44.247 44.247-88.494 88.494-126.42 126.42-25.284 25.284-63.21 25.284-88.494 0-12.642-12.642-31.605-25.284-44.247-37.926-12.642-18.963-25.284-31.605-44.247-44.247-6.321-6.321-6.321-12.642-12.642-25.284-12.642-18.963-18.963-50.568-12.642-75.852 6.321-50.568 25.284-101.136 50.568-145.383 37.926-75.852 88.494-151.704 145.383-214.914 88.494-101.136 189.63-189.63 303.407-259.16 37.926-25.284 82.173-44.247 126.42-56.889 12.642-6.321 31.605-6.321 44.247-12.642h18.963z" />
<glyph unicode="&#xe91c;" glyph-name="play-circle-icon" d="M513.459 960c-282.986 0-513.459-230.473-513.459-513.459s230.473-513.459 513.459-513.459 513.459 230.473 513.459 513.459c-2.917 282.986-230.473 513.459-513.459 513.459 0 0 0 0 0 0zM717.675 437.789l-338.416-204.217c-5.835-2.917-11.67 0-14.587 2.917 0 2.917-2.917 2.917-2.917 5.835v408.433c0 5.835 5.835 11.67 11.67 11.67 2.917 0 2.917 0 5.835-2.917l338.416-204.217c5.835-2.917 5.835-11.67 2.917-14.587 0 0 0-2.917-2.917-2.917z" />
<glyph unicode="&#xe91d;" glyph-name="Profile" d="M244.622-64c-11.378 0-22.756 5.689-34.133 5.689-73.956 17.067-125.156 79.644-125.156 153.6-5.689 79.644 5.689 159.289 34.133 233.244 17.067 51.2 51.2 91.022 96.711 113.778 28.444 17.067 62.578 22.756 91.022 22.756 11.378 0 22.756-5.689 28.444-11.378 22.756-5.689 34.133-17.067 51.2-28.444 79.644-51.2 182.044-51.2 256 0 11.378 5.689 22.756 17.067 34.133 22.756 17.067 11.378 45.511 17.067 68.267 11.378 62.578-5.689 119.467-45.511 147.911-102.4 28.444-51.2 39.822-108.089 45.511-164.978 0-28.444 0-62.578 0-91.022 0-85.333-62.578-159.289-153.6-164.978 0 0-5.689 0-5.689 0h-534.756zM512-7.111v0c85.333 0 170.667 0 256 0 56.889-5.689 108.089 39.822 113.778 102.4 0 5.689 0 11.378 0 17.067 0 28.444 0 51.2-5.689 79.644-5.689 45.511-17.067 96.711-39.822 136.533-17.067 45.511-62.578 73.956-108.089 73.956-5.689 0-11.378 0-11.378-5.689-11.378-5.689-22.756-17.067-39.822-22.756-85.333-62.578-199.111-68.267-295.822-17.067-22.756 11.378-45.511 28.444-68.267 39.822 0 5.689-5.689 5.689-11.378 5.689-34.133 0-62.578-11.378-85.333-34.133-17.067-17.067-34.133-45.511-39.822-68.267-22.756-62.578-34.133-130.844-28.444-199.111 0-34.133 17.067-68.267 51.2-85.333 17.067-17.067 45.511-22.756 68.267-22.756h244.622zM750.933 715.378c0-136.533-108.089-244.622-244.622-244.622-136.533-5.689-244.622 108.089-244.622 244.622 0 130.844 108.089 244.622 244.622 244.622s244.622-108.089 244.622-244.622c0 0 0 0 0 0zM506.311 527.644c102.4 0 187.733 85.333 187.733 187.733s-85.333 187.733-187.733 187.733-187.733-85.333-187.733-193.422c0-51.2 17.067-96.711 56.889-130.844 34.133-34.133 79.644-51.2 130.844-51.2z" />
<glyph unicode="&#xe91e;" glyph-name="Rupee" d="M654.222-69.689c-5.689 5.689-17.067 11.378-22.756 17.067l-443.733 409.6c-5.689 5.689-5.689 5.689-11.378 11.378s-11.378 22.756-5.689 34.133c5.689 11.378 17.067 17.067 28.444 17.067h79.644c39.822 0 73.956 0 113.778 0 119.467 0 221.867 91.022 238.933 210.489 0 0 0 0 0 5.689h-420.978c-5.689 0-11.378 0-17.067 0-11.378 0-22.756 17.067-22.756 28.444s11.378 22.756 28.444 22.756c5.689 0 5.689 0 11.378 0h420.978c-5.689 22.756-5.689 39.822-11.378 56.889-39.822 91.022-125.156 153.6-227.556 159.289-62.578 0-125.156 0-187.733 0 0 0-5.689 0-11.378 0-17.067 0-22.756 17.067-22.756 28.444 0 17.067 11.378 28.444 28.444 28.444h642.844c11.378 0 22.756-5.689 28.444-17.067s5.689-34.133-11.378-39.822c0 0-5.689 0-11.378 0-11.378 0-22.756 0-34.133 0h-244.622c68.267-51.2 113.778-125.156 119.467-210.489h153.6c11.378 0 28.444-11.378 28.444-22.756 5.689-11.378 0-28.444-11.378-34.133-5.689-5.689-11.378-5.689-22.756-5.689-45.511 0-91.022 0-136.533 0-11.378 0-11.378 0-11.378-11.378-17.067-125.156-113.778-227.556-233.244-256-22.756-5.689-51.2-5.689-73.956-5.689-34.133 0-68.267 0-102.4 0 5.689-5.689 5.689-5.689 11.378-11.378l369.778-347.022 17.067-17.067c22.756-22.756 17.067-45.511-11.378-56.889h-11.378z" />
<glyph unicode="&#xe91f;" glyph-name="Select" d="M512-64c-283.569 0-512 228.431-512 512s228.431 512 512 512 512-228.431 512-512c0-283.569-228.431-512-512-512zM512 881.231c-236.308 0-433.231-196.923-433.231-433.231s196.923-433.231 433.231-433.231 433.231 196.923 433.231 433.231-196.923 433.231-433.231 433.231zM834.954 448c0-178.362-144.591-322.954-322.954-322.954s-322.954 144.591-322.954 322.954c0 178.362 144.591 322.954 322.954 322.954s322.954-144.591 322.954-322.954z" />
<glyph unicode="&#xe920;" glyph-name="Star" d="M516.876 823.467l-87.771-204.8c-19.505-39.010-58.514-68.267-102.4-73.143l-219.429-19.505 165.79-151.162c34.133-29.257 48.762-73.143 39.010-117.029l-48.762-219.429 190.171 112.152c19.505 9.752 39.010 19.505 63.39 19.505s43.886-4.876 63.39-19.505l190.171-112.152-48.762 219.429c-9.752 43.886 4.876 87.771 39.010 117.029l165.79 151.162-224.305 19.505c-43.886 4.876-82.895 34.133-102.4 73.143l-82.895 204.8zM516.876 935.619c19.505 0 34.133-9.752 43.886-29.257l112.152-258.438c4.876-14.629 24.381-29.257 39.010-29.257l277.943-24.381c43.886-4.876 58.514-58.514 29.257-82.895l-209.676-185.295c-14.629-9.752-19.505-29.257-14.629-48.762l58.514-273.067c9.752-43.886-34.133-73.143-73.143-53.638l-238.933 141.41c-14.629 9.752-34.133 9.752-48.762 0l-238.933-141.41c-39.010-24.381-82.895 9.752-73.143 53.638l58.514 273.067c4.876 19.505 0 34.133-14.629 48.762l-209.676 180.419c-29.257 29.257-14.629 82.895 29.257 87.771l277.943 24.381c19.505 0 34.133 14.629 39.010 29.257l112.152 258.438c4.876 19.505 24.381 29.257 43.886 29.257z" />
<glyph unicode="&#xe921;" glyph-name="UnSelect" d="M512-64c-283.569 0-512 228.431-512 512s228.431 512 512 512 512-228.431 512-512-228.431-512-512-512zM512 881.231c-236.308 0-433.231-196.923-433.231-433.231s196.923-433.231 433.231-433.231c236.308 0 433.231 196.923 433.231 433.231s-196.923 433.231-433.231 433.231z" />
<glyph unicode="&#xe922;" glyph-name="upload" d="M943.543 335.433v-277.943c0-21.943-14.629-36.571-36.571-36.571h-789.943c-21.943 0-36.571 14.629-36.571 36.571v277.943h-80.457v-277.943c0-65.829 51.2-117.029 117.029-117.029h782.629c65.829 0 117.029 51.2 117.029 117.029v277.943h-73.143zM512 960l-248.686-248.686 58.514-58.514 153.6 153.6v-621.714h80.457v621.714l146.286-153.6 58.514 58.514-248.686 248.686z" />
<glyph unicode="&#xe923;" glyph-name="user-4-01" d="M0 418.358v59.284c0 2.695 2.695 5.389 2.695 10.779 2.695 45.811 13.474 91.621 29.642 134.737 97.011 266.779 390.737 404.211 654.821 307.2 237.137-86.232 374.568-331.453 328.758-576.674-40.421-210.189-204.8-371.874-414.989-406.905-18.863-2.695-37.726-5.389-59.284-8.084h-59.284c-13.474 2.695-26.947 2.695-40.421 5.389-220.968 26.947-396.126 196.716-433.853 414.989-2.695 18.863-5.389 40.421-8.084 59.284zM490.442 380.632c-2.695 0-8.084 0-10.779-2.695-16.168-2.695-32.337-2.695-48.505-8.084-115.874-26.947-210.189-107.789-253.305-215.579-2.695-5.389 0-10.779 2.695-13.474 169.768-183.242 455.411-191.326 638.653-21.558 8.084 8.084 13.474 13.474 21.558 21.558 5.389 2.695 5.389 10.779 2.695 16.168-10.779 29.642-26.947 56.589-45.811 80.842-51.2 70.063-129.347 115.874-212.884 134.737-16.168 2.695-35.032 5.389-53.895 8.084 99.705 10.779 169.768 99.705 158.989 199.411-10.779 91.621-88.926 161.684-183.242 158.989-91.621-2.695-167.074-72.758-175.158-164.379-5.389-97.011 61.979-183.242 158.989-194.021v0z" />
<glyph unicode="&#xe924;" glyph-name="Wallet" d="M1044.48 345.6c0-6.827 0-6.827-6.827-13.653-6.827-27.307-34.133-40.96-61.44-40.96-6.827 0-13.653 0-27.307 0v-13.653c0-34.133 0-68.267 0-102.4 0-54.613-47.787-102.4-102.4-102.4 0 0-6.827 0-6.827 0h-723.627c-54.613 0-95.573 34.133-109.227 81.92 0 6.827 0 20.48 0 27.307 0 184.32 0 375.467 0 559.787-6.827 61.44 40.96 116.053 95.573 116.053 0 0 6.827 0 6.827 0 245.76 0 491.52 0 730.453 0 61.44 0 116.053-40.96 116.053-102.4 0 0 0-6.827 0-6.827 0-47.787 0-88.747 0-136.533v-13.653h20.48c34.133 0 61.44-20.48 68.267-47.787 0 0 0 0 0-6.827v-197.973zM914.773 598.187v143.36c0 34.133-20.48 68.267-61.44 68.267-6.827 0-6.827 0-13.653 0h-723.627c-34.133 0-68.267-27.307-68.267-61.44 0-6.827 0-6.827 0-13.653v-552.96c0-6.827 0-13.653 0-20.48 6.827-27.307 34.133-47.787 68.267-47.787h730.453c34.133 0 68.267 27.307 68.267 68.267 0 0 0 0 0 0 0 27.307 0 47.787 0 75.093v34.133h-13.653c-61.44 0-129.707 0-191.147 0-81.92 6.827-150.187 81.92-143.36 163.84s75.093 143.36 157.013 143.36c61.44 0 122.88 0 184.32 0h6.827zM839.68 338.773h129.707c13.653 0 27.307 6.827 27.307 20.48 0 0 0 6.827 0 6.827 0 54.613 0 109.227 0 163.84 0 13.653-6.827 20.48-20.48 27.307 0 0-6.827 0-6.827 0-13.653 0-27.307 0-40.96 0-68.267 0-143.36 0-211.627 0-34.133 0-68.267-13.653-88.747-40.96-34.133-54.613-27.307-122.88 20.48-157.013 20.48-13.653 40.96-20.48 61.44-20.48 47.787-6.827 88.747 0 129.707 0v0zM785.067 441.173c0-34.133-27.307-61.44-68.267-61.44-34.133 0-61.44 27.307-61.44 68.267 0 34.133 27.307 61.44 68.267 61.44 20.48 0 34.133-6.827 47.787-20.48 6.827-13.653 13.653-27.307 13.653-47.787zM716.8 420.693c13.653 0 20.48 13.653 20.48 20.48s-13.653 20.48-20.48 20.48c-13.653 0-20.48-13.653-20.48-20.48s0-13.653 6.827-13.653c0 0 6.827-6.827 13.653-6.827v0z" />
<glyph unicode="&#xe925;" glyph-name="Watch" d="M148.048 811.952c98.699 98.699 234.41 148.048 370.12 148.048s271.422-49.349 370.12-148.048c98.699-98.699 148.048-222.072 148.048-370.12 0-135.711-49.349-271.422-148.048-370.12s-222.072-148.048-370.12-148.048c-135.711 0-271.422 49.349-370.12 148.048s-148.048 234.41-148.048 370.12c0 135.711 49.349 271.422 148.048 370.12zM222.072 158.072c74.024-74.024 185.060-123.373 283.759-123.373 111.036 0 209.735 49.349 283.759 123.373s123.373 185.060 123.373 283.759c0 111.036-37.012 209.735-123.373 283.759-74.024 74.024-185.060 123.373-283.759 123.373-111.036 0-209.735-49.349-283.759-123.373s-123.373-185.060-123.373-283.759c0-98.699 49.349-209.735 123.373-283.759v0zM542.843 713.253v-271.422l234.41-135.711-49.349-74.024-259.084 160.386v308.434l74.024 12.337z" />
<glyph unicode="&#xe926;" glyph-name="Wishlist" d="M0 618.667c0 20.48 6.827 40.96 6.827 54.613 20.48 95.573 88.747 170.667 177.493 197.973 95.573 34.133 204.8 6.827 266.24-68.267 27.307-20.48 47.787-40.96 61.44-68.267l6.827 13.653c27.307 54.613 68.267 95.573 122.88 122.88 61.44 34.133 136.533 34.133 197.973 13.653 88.747-34.133 157.013-109.227 177.493-204.8 20.48-88.747 0-191.147-54.613-266.24-47.787-68.267-102.4-129.707-163.84-184.32-88.747-75.093-177.493-150.187-259.413-225.28-13.653-13.653-27.307-13.653-40.96 0 0 0 0 0 0 0-102.4 88.747-197.973 170.667-300.373 259.413-54.613 34.133-95.573 81.92-136.533 136.533-34.133 47.787-54.613 109.227-61.44 170.667 0 0 0 6.827 0 6.827v40.96zM512 52.053c0 6.827 0 6.827 0 0 95.573 81.92 184.32 157.013 273.067 238.933 54.613 47.787 102.4 102.4 136.533 157.013 34.133 61.44 47.787 129.707 34.133 197.973-13.653 75.093-68.267 136.533-136.533 163.84-54.613 20.48-109.227 13.653-157.013-13.653-40.96-13.653-75.093-47.787-95.573-88.747-6.827-20.48-20.48-40.96-27.307-61.44-6.827-13.653-20.48-20.48-40.96-13.653-6.827 0-13.653 6.827-13.653 13.653s0 6.827-6.827 13.653c-13.653 40.96-40.96 88.747-75.093 122.88-75.093 68.267-197.973 68.267-266.24-6.827-68.267-68.267-95.573-177.493-54.613-266.24 20.48-47.787 47.787-95.573 88.747-136.533 34.133-40.96 75.093-88.747 122.88-122.88 68.267-68.267 143.36-129.707 218.453-197.973v0z" />
<glyph unicode="&#xe927;" glyph-name="Wrong" d="M661.333 448l288 288c42.667 42.667 42.667 106.667 0 149.333s-106.667 42.667-149.333 0l-288-288-288 288c-42.667 42.667-106.667 42.667-149.333 0s-42.667-106.667 0-149.333l288-288-288-288c-42.667-42.667-42.667-106.667 0-149.333 21.333-21.333 53.333-32 74.667-32s53.333 10.667 74.667 32l288 288 288-288c21.333-21.333 53.333-32 74.667-32s53.333 10.667 74.667 32c42.667 42.667 42.667 106.667 0 149.333l-288 288z" />
<glyph unicode="&#xe928;" horiz-adv-x="1099" d="M0 647.875v61.817c2.572 18.472 3.858 36.915 7.307 55.387 7.823 44.665 26.638 83.98 53.548 116.319l-0.324-0.401c40.164 46.398 98.707 75.958 164.18 77.275l0.228 0.004c4.999 0.252 10.855 0.396 16.745 0.396 67.028 0 129.707-18.621 183.146-50.972l-1.58 0.888c55.766-29.058 99.171-75.381 123.807-131.78l0.675-1.733c10.915 20.734 21.879 38.285 33.961 54.974l-0.904-1.312c64.413 80.359 162.564 131.372 272.629 131.372 14.962 0 29.703-0.943 44.168-2.772l-1.72 0.178c54.426-4.965 102.105-30.417 135.901-68.474l0.184-0.211c38.289-44.626 62.514-102.309 65.246-165.564l0.020-0.568c1.331-14.115 2.090-30.523 2.090-47.107 0-83.205-19.103-161.948-53.163-232.083l1.385 3.162c-5.144-11.165-10.727-21.453-16.309-32.618-3.554 168.35-139.344 303.833-307.48 306.889l-0.29 0.004c-1.744 0.035-3.801 0.056-5.862 0.056-161.761 0-294.537-124.099-308.315-282.285l-0.082-1.164c-1.206-10.049-1.893-21.687-1.893-33.485 0-82.39 33.544-156.946 87.719-210.756l0.017-0.016c56.24-58.404 135.106-94.68 222.444-94.68 7.223 0 14.388 0.248 21.487 0.736l-0.959-0.053c-51.963-37.652-111.25-74.403-173.131-106.88l-8.083-3.864c-2.671-1.73-5.936-2.758-9.441-2.758s-6.77 1.028-9.509 2.8l0.069-0.042c-93.915 48.064-174.853 101.71-249.063 163.194l2.233-1.798c-78.196 62.792-144.845 135.725-199.133 217.57l-2.189 3.51c-37.275 56.271-65.551 122.127-80.883 192.81l-0.692 3.807c-1.754 26.159-4.326 53.282-8.184 80.231z" />
<glyph unicode="&#xe929;" horiz-adv-x="1099" d="M980.45 411.772c0-142.244-115.312-257.556-257.556-257.556s-257.556 115.312-257.556 257.556c0 142.244 115.312 257.556 257.556 257.556v0c142.244 0 257.556-115.312 257.556-257.556v0zM937.515 411.772c-0.599 119.159-97.334 215.524-216.576 215.524-119.613 0-216.579-96.966-216.579-216.579s96.966-216.579 216.579-216.579c0.379 0 0.758 0.001 1.137 0.003h-0.058c119.212 0.53 215.646 97.292 215.646 216.577 0 0.371-0.001 0.741-0.003 1.111v-0.057z" />
<glyph unicode="&#xe92a;" horiz-adv-x="1099" d="M1002.021 52.035l-111.066-64.301-3.858 6.43c-27.474 46.765-54.51 93.997-82.423 142.077l111.592 64.301z" />
<glyph unicode="&#xe92b;" horiz-adv-x="1099" d="M901.477-31.645l109.897 63.103c5.902-9.302 9.406-20.631 9.406-32.778 0-20.775-10.248-39.156-25.965-50.364l-0.189-0.128c-10.396-7.615-23.44-12.185-37.55-12.185-23.699 0-44.387 12.891-55.434 32.043l-0.165 0.309z" />
<glyph unicode="&#xe92c;" horiz-adv-x="1099" d="M525.956 496.387c33.871 76.673 109.247 129.211 196.894 129.211 1.68 0 3.356-0.019 5.027-0.058l-0.248 0.005c115.889-4.326-236.366-209.184-201.673-129.158z" />
<glyph unicode="&#xe92d;" horiz-adv-x="826" d="M826.449 385.015l-72.057-28.799c-21.855-8.752-23.781-11.677-23.781-34.816v-260.62h-20.024c-8.705 0.594-18.868 0.932-29.11 0.932-12.798 0-25.472-0.529-38.002-1.565l1.642 0.109c-52.818-7.705-90.060 18.716-124.638 52.319-15.339 14.958-30.012 30.535-44.519 45.185l-29.465-30.916c13.983-13.983 30.535-29.869 46.136-46.635 4.268-4.671 7.043-10.77 7.533-17.503l0.006-0.095c0.666-38.359 0.333-76.766 0.309-115.221 0-3.567-0.333-7.134-0.571-11.391h-312.249v14.15c0 69.109-0.119 138.193 0.166 207.302 0.006 0.263 0.010 0.574 0.010 0.885 0 10.248-3.986 19.564-10.493 26.484l0.019-0.020c-30.107 34.269-61.831 67.42-89.204 103.805-46.113 61.068-76.857 136.134-85.174 217.834l-0.153 1.858c-2.043 15.12-3.209 32.598-3.209 50.347 0 74.674 20.64 144.527 56.526 204.165l-0.998-1.789c54.124 93.806 143.956 161.875 250.462 186.046l2.595 0.495c28.491 8.29 61.219 13.059 95.061 13.059 57.377 0 111.553-13.707 159.431-38.026l-2.006 0.925c87.615-44.073 149.969-127.219 164.488-225.925l0.198-1.638c5.422-33.651 3.306-68.443 5.493-102.664 0.457-10.52 2.916-20.355 7.002-29.289l-0.201 0.49c26.873-55.149 54.578-109.989 81.95-164.757 2.045-4.352 4.067-8.728 6.825-14.721z" />
<glyph unicode="&#xe92e;" horiz-adv-x="826" d="M303.045 326.156h131.225" />
<glyph unicode="&#xe92f;" horiz-adv-x="826" d="M324.615 292.863h87.991" />
<glyph unicode="&#xe930;" horiz-adv-x="826" d="M334.841 259.569h67.61" />
<glyph unicode="&#xe931;" horiz-adv-x="826" d="M424.663 349.938h-111.772v16.956c0 11.629-1.284 13.769-12.057 17.955-34.644 13.254-63.386 35.41-84.304 63.703l-0.358 0.507c-23.651 30.283-37.923 68.893-37.923 110.836 0 10.045 0.819 19.899 2.393 29.499l-0.142-1.047c8.825 76.247 63.336 137.687 135.108 156.669l1.278 0.287c15.634 4.639 33.597 7.308 52.183 7.308 93.117 0 170.585-66.997 186.831-155.417l0.178-1.166c1.864-10.010 2.931-21.526 2.931-33.292 0-80.577-50.012-149.474-120.688-177.343l-1.292-0.449c-11.082-4.304-12.271-6.302-12.271-18.431z" />
<glyph unicode="&#xe932;" horiz-adv-x="2048" d="M2047.549-64c0.001 0.559 0.002 1.22 0.002 1.881 0 282.212-114.547 537.671-299.684 722.418l-0.017 0.017-724.083-724.068z" />
<glyph unicode="&#xe933;" horiz-adv-x="2048" d="M1023.771 959.771c-0.586 0.001-1.281 0.002-1.975 0.002-282.060 0-537.388-114.45-722.079-299.443l-0.013-0.014 724.068-724.068z" />
<glyph unicode="&#xe934;" horiz-adv-x="2048" d="M1747.85 660.316c-184.706 185.143-440.107 299.685-722.261 299.685-0.635 0-1.271-0.001-1.906-0.002h0.099v-1024.011z" />
<glyph unicode="&#xe935;" horiz-adv-x="2048" d="M299.68 660.312c-185.145-184.763-299.685-440.215-299.685-722.419 0-0.58 0-1.16 0.001-1.739v0.091h1023.389z" />
<glyph unicode="&#xe936;" glyph-name="Icon-awesome-twitter-01" horiz-adv-x="1261" d="M384-64c-137.481 0-265.481 37.926-379.259 113.778l18.963 52.148c18.963 0 37.926-4.741 52.148-4.741v0c75.852 0 151.704 18.963 218.074 56.889-80.593 23.704-146.963 90.074-175.407 175.407l-14.222 42.667 28.444-4.741c-61.63 47.407-99.556 123.259-99.556 208.593v47.407l42.667-18.963c-52.148 80.593-56.889 189.63-4.741 279.704l28.444 37.926 23.704-33.185c109.037-132.741 265.481-218.074 436.148-237.037 0 9.481 0 14.222 0 23.704 0 71.111 28.444 137.481 80.593 189.63s118.519 80.593 189.63 80.593v0c66.37 0 132.741-28.444 184.889-71.111 47.407 9.481 90.074 28.444 128 52.148l56.889 33.185-23.704-71.111c-9.481-23.704-14.222-52.148-37.926-71.111 9.481 4.741 18.963 9.481 28.444 14.222l90.074 37.926-56.889-80.593c-33.185-47.407-71.111-85.333-113.778-123.259 0-4.741 0-9.481 0-18.963 0-189.63-71.111-365.037-203.852-497.778-123.259-137.481-298.667-208.593-483.556-213.333h-14.222c4.741 0 4.741 0 0 0z" />
<glyph unicode="&#xe937;" d="M725.696 64.213l-426.667-0.405c-93.867-0.085-170.731 76.629-170.837 170.496l-0.405 426.667c-0.085 93.867 76.629 170.731 170.496 170.837l426.667 0.405c93.867 0.085 170.731-76.629 170.837-170.496l0.405-426.667c0.107-93.888-76.629-170.752-170.496-170.837z" />
<glyph unicode="&#xe938;" d="M725.696 64.213l-426.667-0.405c-93.867-0.085-170.731 76.629-170.837 170.496l-0.405 426.667c-0.085 93.867 76.629 170.731 170.496 170.837l426.667 0.405c93.867 0.085 170.731-76.629 170.837-170.496l0.405-426.667c0.107-93.888-76.629-170.752-170.496-170.837z" />
<glyph unicode="&#xe939;" d="M512 298.667c-82.325 0-149.333 66.987-149.333 149.333s67.008 149.333 149.333 149.333 149.333-66.987 149.333-149.333-67.008-149.333-149.333-149.333zM512 554.667c-58.816 0-106.667-47.851-106.667-106.667s47.851-106.667 106.667-106.667 106.667 47.851 106.667 106.667-47.851 106.667-106.667 106.667z" />
<glyph unicode="&#xe93a;" d="M704 608c0-17.673-14.327-32-32-32s-32 14.327-32 32c0 17.673 14.327 32 32 32s32-14.327 32-32z" />
<glyph unicode="&#xe93b;" d="M640 170.667h-256c-82.325 0-149.333 66.987-149.333 149.333v256c0 82.347 67.008 149.333 149.333 149.333h256c82.325 0 149.333-66.987 149.333-149.333v-256c0-82.347-67.008-149.333-149.333-149.333zM384 682.667c-58.816 0-106.667-47.851-106.667-106.667v-256c0-58.816 47.851-106.667 106.667-106.667h256c58.816 0 106.667 47.851 106.667 106.667v256c0 58.816-47.851 106.667-106.667 106.667h-256z" />
<glyph unicode="&#xe93c;" horiz-adv-x="1260" d="M0.129 514.408h256.045c11.156-74.030 22.157-146.748 33.262-220.495-1.285 0-5.141-0.514-9.048-0.514q-107.035 0-214.095-0.257c-0.572-0.078-1.232-0.122-1.903-0.122-6.771 0-12.486 4.522-14.29 10.71l-0.026 0.105c-25.191 57.854-42.259 124.942-47.728 195.283l-0.135 2.155c-0.574 4.129-1.346 7.746-2.35 11.266l0.14-0.573z" />
<glyph unicode="&#xe93d;" horiz-adv-x="1260" d="M349.867 731.793c33.72-15.348 61.655-38.295 82.491-66.764l0.407-0.583c21.409 29.109 49.454 52.134 81.978 67.091l1.306 0.538c-17.648 23.485-28.261 53.133-28.261 85.26 0 10.646 1.165 21.019 3.376 31l-0.176-0.948c6.91 32.63 24.494 60.344 48.856 79.991l0.266 0.207c24.291 20.161 55.791 32.394 90.149 32.394 31.807 0 61.165-10.485 84.807-28.186l-0.369 0.265c30.041-21.751 50.874-54.63 56.459-92.474l0.092-0.757c0.968-6.327 1.521-13.626 1.521-21.054 0-32.207-10.392-61.986-28.005-86.169l0.291 0.419c33.976-15.579 62.158-38.676 83.313-67.284l0.407-0.577c21.165 29.017 48.946 51.985 81.2 66.94l1.287 0.535c-41.333 80.661-33.416 146.903 22.929 194.354 24.6 21.031 56.787 33.828 91.963 33.828 32.287 0 62.055-10.782 85.901-28.941l-0.348 0.254c29.907-21.907 50.464-55.055 55.448-93.103l0.074-0.694c0.964-6.189 1.514-13.326 1.514-20.593 0-31.783-10.534-61.105-28.3-84.666l0.258 0.358c59.134-26.639 102.545-79.1 116.227-142.612l0.241-1.334h-1252.232c6.097 33.042 20.153 62.079 40.111 86.024l-0.242-0.299c20.053 24.573 45.29 44.135 74.114 57.164l1.278 0.517c-17.382 23.567-27.82 53.183-27.82 85.237 0 14.399 2.106 28.307 6.028 41.431l-0.262-1.023c9.289 31.812 28.679 58.214 54.401 76.172l0.453 0.3c22.755 16.173 51.106 25.855 81.719 25.855 35.539 0 68.030-13.049 92.943-34.617l-0.179 0.151c55.831-48.068 63.491-112.176 22.389-193.608z" />
<glyph unicode="&#xe93e;" horiz-adv-x="1260" d="M1260.047 513.766c-4.454-77.086-22.178-148.905-50.921-214.814l1.568 4.036c-2.57-6.169-4.884-9.973-12.852-9.922-73.85 0.411-147.699 0.257-221.575 0.283-1.591 0.028-3.123 0.139-4.63 0.33l0.209-0.022c11.079 73.259 22.132 146.26 33.288 220.058z" />
<glyph unicode="&#xe93f;" horiz-adv-x="1260" d="M369.866 294.273c-18.638 64.462-31.372 139.323-35.517 216.467l-0.11 2.563h258.564v-219.030z" />
<glyph unicode="&#xe940;" horiz-adv-x="1260" d="M668.092 293.836v219.467h259.104c-4.271-79.923-17.042-154.986-37.481-226.819l1.751 7.198z" />
<glyph unicode="&#xe941;" horiz-adv-x="1260" d="M475.435-57.677c-161.679 40.481-295.285 139.903-379.505 273.567l-1.517 2.579c6.169 0.437 9.999 0.9 13.829 0.925 64.776 0 129.578-0.257 194.354 0.308 0.671 0.103 1.445 0.162 2.233 0.162 7.484 0 13.723-5.331 15.127-12.403l0.016-0.098c31.723-92.706 77.467-172.838 135.49-242.366l-0.977 1.204c6.863-8.2 13.958-15.937 20.949-23.88z" />
<glyph unicode="&#xe942;" horiz-adv-x="1260" d="M785.357-60.53c20.178 25.705 39.508 48.428 56.885 72.642 39.934 55.884 73.376 120.211 97.14 189.050l1.592 5.304c1.518 7.836 8.325 13.673 16.494 13.673 0.919 0 1.822-0.074 2.701-0.216l-0.096 0.013c63.979-0.643 127.933-0.308 191.912-0.308h15.423c-86.337-137.052-220.012-237.55-377.609-279.159l-4.44-0.997z" />
<glyph unicode="&#xe943;" horiz-adv-x="1260" d="M394.054 218.881h199.006v-282.495c-90.294 72.467-159.113 168.204-197.684 278.168l-1.322 4.327z" />
<glyph unicode="&#xe944;" horiz-adv-x="1260" d="M668.066-64v282.521h198.955c-39.78-114.338-108.603-210.106-197.743-281.582l-1.211-0.939z" />
<glyph unicode="&#xe945;" horiz-adv-x="768" d="M714.147-64.026h-660.162c-43.345 16.445-54.011 32.076-54.011 79.309v873.789c-0.195 1.89-0.307 4.084-0.307 6.304 0 35.85 29.062 64.913 64.913 64.913 2.152 0 4.28-0.105 6.379-0.309l-0.266 0.021h377.314v-246.937c-0.307-2.385-0.482-5.143-0.482-7.943 0-36.271 29.404-65.675 65.675-65.675 2.948 0 5.851 0.194 8.697 0.571l-0.334-0.036h246.070c0.184-2.627 0.368-4.256 0.368-5.858q0-316.447-0.289-632.841c-0.488-11.202-3.207-21.655-7.721-31.086l0.208 0.481c-9.137-17.853-25.774-30.756-45.639-34.636l-0.412-0.067zM639.461 64.46v446.772h-126.857v-446.772zM447.429 64.46v318.838h-126.857v-318.838zM255.37 64.46v190.719h-126.91v-190.746z" />
<glyph unicode="&#xe946;" horiz-adv-x="768" d="M639.461 64.46h-126.857v446.746h126.857z" />
<glyph unicode="&#xe947;" horiz-adv-x="768" d="M447.402 64.486h-126.857v318.811h126.857z" />
<glyph unicode="&#xe948;" horiz-adv-x="768" d="M255.343 64.433h-126.805v190.746h126.805z" />
<glyph unicode="&#xe949;" horiz-adv-x="768" d="M512.788 956.243l251.692-251.639h-251.692z" />
<glyph unicode="&#xe94a;" glyph-name="Wave" horiz-adv-x="10735" d="M10735.484 960l-223.653-72.671c-223.653-69.971-670.968-219.433-1118.282-362.1s-894.621-292.146-1341.935-181.405c-447.315 106.661-894.621 473.517-1341.935 507.483s-894.621-251.359-1341.935-362.1c-447.315-106.661-894.621 173.956-1341.935 67.303-447.315-110.732-894.621-396.065-1341.935-434.787-447.315-36.005-894.621 181.388-1341.935 290.089s-894.621 108.684-1118.282 108.684h-223.653v-584.498h10735.484z" />
<glyph unicode="&#xe94b;" glyph-name="check-2-01" horiz-adv-x="1023" d="M481.254-64c-19.421 2.584-38.755 4.565-58.176 7.88-109.013 18.673-203.611 70.409-275.479 144.353l-0.114 0.118c-70.021 69.071-119.326 158.98-137.853 259.664l-0.46 3.011c-6.099 29.571-9.59 63.557-9.59 98.358 0 238.498 163.967 438.7 385.324 494.027l3.508 0.742c37.477 10.013 80.504 15.764 124.875 15.764 107.387 0 206.906-33.686 288.566-91.069l-1.602 1.067c11.538-7.042 19.124-19.563 19.124-33.856 0-7.893-2.313-15.246-6.299-21.418l0.094 0.155c-7.004-11.271-19.318-18.663-33.358-18.663-8.113 0-15.649 2.468-21.899 6.694l0.138-0.088c-32.378 22.164-69.617 40.884-109.299 54.303l-3.22 0.945c-40.103 13.913-86.324 21.948-134.421 21.948-93.806 0-180.474-30.564-250.588-82.276l1.16 0.817c-110.6-78.851-181.859-206.684-181.859-351.162 0-88.789 26.913-171.293 73.026-239.798l-0.974 1.535c78.285-117.051 209.934-193.090 359.343-193.090 77.598 0 150.405 20.511 213.295 56.406l-2.118-1.113c5.138 3.19 11.228 6.426 17.532 9.273l1.028 0.415c4.214 1.665 9.096 2.631 14.203 2.631 15.251 0 28.491-8.608 35.127-21.231l0.104-0.217c3.047-5.372 4.843-11.8 4.843-18.648 0-13.996-7.503-26.24-18.706-32.929l-0.175-0.097c-18.369-11.079-40.487-22.592-63.31-32.815l-4.082-1.634c-46.992-20.782-101.523-34.641-158.766-38.668l-1.552-0.088c-2.969-0.395-5.566-0.922-8.098-1.607l0.433 0.1zM520.569 251.855c-1.264-0.053-2.748-0.083-4.239-0.083-29.013 0-55.372 11.363-74.869 29.882l0.047-0.044q-103.046 97.534-205.877 195.24c-8.868 7.336-14.475 18.342-14.475 30.657 0 10.923 4.411 20.816 11.549 27.994l-0.002-0.002c7.293 7.414 17.434 12.008 28.647 12.008 11.979 0 22.734-5.243 30.094-13.559l0.037-0.042q100.118-94.735 200.106-189.729c18.043-17.225 30.143-16.536 45.473 2.67l405.509 504.464c6.777 11.117 16.867 19.635 28.884 24.281l0.398 0.135c3.231 0.933 6.942 1.47 10.779 1.47 12.65 0 23.938-5.834 31.319-14.958l0.059-0.076c5.394-6.664 8.659-15.243 8.659-24.584 0-7.162-1.919-13.876-5.272-19.655l0.101 0.188c-2.414-4.015-4.886-7.475-7.601-10.726l0.108 0.133-414.94-516.091c-17.443-22.806-44.054-37.84-74.23-39.561l-0.266-0.012zM1022.751 451.876c0-0.003 0-0.007 0-0.010 0-106.138-31.691-204.875-86.127-287.263l1.21 1.948c-7.003-12.345-20.057-20.539-35.025-20.539-8.254 0-15.927 2.492-22.306 6.765l0.145-0.091c-10.828 7.13-17.876 19.231-17.876 32.979 0 8.396 2.629 16.178 7.109 22.568l-0.084-0.126c26.26 39.661 46.977 85.754 59.604 135.086l0.682 3.141c7.786 30.643 12.255 65.821 12.255 102.042 0 36.793-4.611 72.508-13.286 106.601l0.643-2.982c-1.313 3.841-2.072 8.265-2.072 12.867 0 10.488 3.939 20.056 10.417 27.306l-0.035-0.040c6.971 8.194 17.292 13.358 28.818 13.358 3.254 0 6.412-0.412 9.424-1.185l-0.262 0.057c15.223-2.976 27.079-14.63 30.312-29.502l0.046-0.253c10.054-36.716 16.016-78.939 16.405-122.493l0.002-0.232z" />
<glyph unicode="&#xe94c;" d="M725.333 64h-426.667c-93.867 0-170.667 76.8-170.667 170.667v426.667c0 93.867 76.8 170.667 170.667 170.667h426.667c93.867 0 170.667-76.8 170.667-170.667v-426.667c0-93.867-76.8-170.667-170.667-170.667z" />
<glyph unicode="&#xe94d;" d="M725.333 64h-426.667c-93.867 0-170.667 76.8-170.667 170.667v426.667c0 93.867 76.8 170.667 170.667 170.667h426.667c93.867 0 170.667-76.8 170.667-170.667v-426.667c0-93.867-76.8-170.667-170.667-170.667z" />
<glyph unicode="&#xe94e;" d="M512 298.667c-83.2 0-149.333 66.133-149.333 149.333s66.133 149.333 149.333 149.333 149.333-66.133 149.333-149.333-66.133-149.333-149.333-149.333zM512 554.667c-59.733 0-106.667-46.933-106.667-106.667s46.933-106.667 106.667-106.667 106.667 46.933 106.667 106.667-46.933 106.667-106.667 106.667z" />
<glyph unicode="&#xe94f;" d="M704 608c0-17.673-14.327-32-32-32s-32 14.327-32 32c0 17.673 14.327 32 32 32s32-14.327 32-32z" />
<glyph unicode="&#xe950;" d="M640 170.667h-256c-83.2 0-149.333 66.133-149.333 149.333v256c0 83.2 66.133 149.333 149.333 149.333h256c83.2 0 149.333-66.133 149.333-149.333v-256c0-83.2-66.133-149.333-149.333-149.333zM384 682.667c-59.733 0-106.667-46.933-106.667-106.667v-256c0-59.733 46.933-106.667 106.667-106.667h256c59.733 0 106.667 46.933 106.667 106.667v256c0 59.733-46.933 106.667-106.667 106.667h-256z" />
<glyph unicode="&#xe951;" glyph-name="youtube1" d="M1.54 402.574c0 29.257 0 58.514 0 87.771 0 9.239 1.54 20.018 1.54 29.257 4.62 49.275 7.699 100.090 13.859 149.365 6.159 46.195 27.717 81.612 69.293 103.17 20.018 10.779 43.116 15.398 66.214 16.938 75.453 4.62 150.905 10.779 224.818 12.319 113.949 1.54 227.898 0 341.847-1.54 58.514-1.54 115.489-7.699 172.463-13.859s100.090-44.656 110.869-101.63c7.699-40.036 10.779-81.612 15.398-121.648 3.080-23.098 3.080-46.195 4.62-69.293 0-30.797 0-61.594 0-92.391 0-4.62-1.54-9.239-1.54-13.859-1.54-55.435-4.62-110.869-13.859-166.304-12.319-69.293-50.815-110.869-120.108-118.568-66.214-7.699-132.427-12.319-198.641-13.859-117.029-1.54-234.057-1.54-352.626 0-66.214 1.54-133.967 7.699-200.18 13.859-63.134 6.159-106.25 46.195-117.029 109.329-7.699 38.496-10.779 78.532-13.859 118.568 0 24.638-1.54 49.275-3.080 72.373zM412.68 291.705c89.311 52.355 177.083 101.63 266.394 153.985-89.311 52.355-178.623 103.17-266.394 153.985 0-103.17 0-204.8 0-307.97z" />
<glyph unicode="&#xe952;" horiz-adv-x="3220" d="M2861.551 123.095l91.631 82.581c1.097 1 1.783 2.435 1.784 4.030v0 476.788c-0.002 1.585-0.688 3.009-1.779 3.993l-0.005 0.004-91.631 82.581c-0.95 0.857-2.214 1.381-3.601 1.381-2.971 0-5.381-2.407-5.384-5.377v0-641.982c0.022-2.957 2.424-5.345 5.384-5.345 1.387 0 2.651 0.524 3.605 1.385l-0.005-0.004zM3028.662 273.425l189.44 170.645c1.104 0.99 1.795 2.421 1.795 4.013s-0.691 3.023-1.79 4.009l-0.005 0.004-189.44 170.38c-0.95 0.857-2.214 1.381-3.601 1.381-2.974 0-5.384-2.411-5.384-5.384 0-0.009 0-0.019 0-0.028v0.001-340.926c0-0.018 0-0.039 0-0.060 0-2.974 2.411-5.384 5.384-5.384 1.387 0 2.651 0.524 3.606 1.385l-0.005-0.004zM2694.375-20.563l91.565 75.974c1.195 1.001 1.949 2.493 1.949 4.161 0 0 0 0 0 0.001v0 777.084c0 0.005 0 0.010 0 0.016 0 1.664-0.755 3.151-1.94 4.139l-0.009 0.007-91.565 75.974c-0.93 0.787-2.143 1.266-3.469 1.266-2.974 0-5.384-2.411-5.384-5.384 0-0.015 0-0.031 0-0.046v0.002-929.164c0-0.013 0-0.028 0-0.044 0-2.974 2.411-5.384 5.384-5.384 1.325 0 2.538 0.479 3.476 1.273l-0.008-0.007zM2428.994 452.889c1.736-0.908 2.9-2.697 2.9-4.757s-1.164-3.848-2.87-4.743l-0.029-0.014c-26.388-12.923-49.067-28.699-68.991-47.377l0.152 0.141c-48.775-48.777-78.943-116.161-78.943-190.591 0-148.865 120.679-269.543 269.543-269.543 23.418 0 46.138 2.986 67.8 8.599l-1.872-0.412c2.369 0.635 4.087 2.758 4.096 5.284v997.080c0 0.009 0 0.020 0 0.031 0 2.523-1.724 4.643-4.058 5.245l-0.038 0.008c-19.751 5.18-42.426 8.154-65.796 8.154-148.865 0-269.543-120.679-269.543-269.543 0-74.348 30.101-141.665 78.781-190.43l-0.004 0.004c19.77-18.556 42.449-34.342 67.212-46.544l1.627-0.725z" />
<glyph unicode="&#xe953;" horiz-adv-x="3220" d="M580.212 123.095l91.631 82.581c1.097 1 1.783 2.435 1.784 4.030v0 476.788c-0.002 1.585-0.688 3.009-1.779 3.993l-0.005 0.004-91.631 82.581c-0.95 0.857-2.214 1.381-3.601 1.381-2.971 0-5.381-2.407-5.384-5.377v0-641.982c0.022-2.957 2.424-5.345 5.384-5.345 1.387 0 2.651 0.524 3.605 1.385l-0.005-0.004zM747.322 273.425l189.44 170.645c1.104 0.99 1.795 2.421 1.795 4.013s-0.691 3.023-1.79 4.009l-0.005 0.004-189.44 170.38c-0.95 0.857-2.214 1.381-3.601 1.381-2.974 0-5.384-2.411-5.384-5.384 0-0.009 0-0.019 0-0.028v0.001-340.926c0-0.018 0-0.039 0-0.060 0-2.974 2.411-5.384 5.384-5.384 1.387 0 2.651 0.524 3.606 1.385l-0.005-0.004zM413.035-20.563l91.565 75.974c1.195 1.001 1.949 2.493 1.949 4.161 0 0 0 0 0 0.001v0 777.084c0 0.005 0 0.010 0 0.016 0 1.664-0.755 3.151-1.94 4.139l-0.009 0.007-91.565 75.974c-0.93 0.787-2.143 1.266-3.469 1.266-2.974 0-5.384-2.411-5.384-5.384 0-0.015 0-0.031 0-0.046v0.002-929.164c0-0.013 0-0.028 0-0.044 0-2.974 2.411-5.384 5.384-5.384 1.325 0 2.538 0.479 3.476 1.273l-0.008-0.007zM147.654 452.889c1.736-0.908 2.9-2.697 2.9-4.757s-1.164-3.848-2.87-4.743l-0.029-0.014c-26.388-12.923-49.067-28.699-68.991-47.377l0.152 0.141c-48.775-48.777-78.943-116.161-78.943-190.591 0-148.865 120.679-269.543 269.543-269.543 23.418 0 46.138 2.986 67.8 8.599l-1.872-0.412c2.369 0.635 4.087 2.758 4.096 5.284v997.080c0 0.009 0 0.020 0 0.031 0 2.523-1.724 4.643-4.058 5.245l-0.038 0.008c-19.751 5.18-42.426 8.154-65.796 8.154-148.865 0-269.543-120.679-269.543-269.543 0-74.348 30.101-141.665 78.781-190.43l-0.004 0.004c19.77-18.556 42.449-34.342 67.212-46.544l1.627-0.725z" />
<glyph unicode="&#xe954;" horiz-adv-x="3220" d="M1720.882 123.095l91.631 82.581c1.097 1 1.783 2.435 1.784 4.030v0 476.788c-0.002 1.585-0.688 3.009-1.779 3.993l-0.005 0.004-91.631 82.581c-0.95 0.857-2.214 1.381-3.601 1.381-2.971 0-5.381-2.407-5.384-5.377v0-641.982c0.022-2.957 2.424-5.345 5.384-5.345 1.387 0 2.651 0.524 3.605 1.385l-0.005-0.004zM1887.992 273.425l189.44 170.645c1.104 0.99 1.795 2.421 1.795 4.013s-0.691 3.023-1.79 4.009l-0.005 0.004-189.44 170.38c-0.95 0.857-2.214 1.381-3.601 1.381-2.974 0-5.384-2.411-5.384-5.384 0-0.009 0-0.019 0-0.028v0.001-340.926c0-0.018 0-0.039 0-0.060 0-2.974 2.411-5.384 5.384-5.384 1.387 0 2.651 0.524 3.606 1.385l-0.005-0.004zM1553.705-20.563l91.565 75.974c1.195 1.001 1.949 2.493 1.949 4.161 0 0 0 0 0 0.001v0 777.084c0 0.005 0 0.010 0 0.016 0 1.664-0.755 3.151-1.94 4.139l-0.009 0.007-91.565 75.974c-0.93 0.787-2.143 1.266-3.469 1.266-2.974 0-5.384-2.411-5.384-5.384 0-0.015 0-0.031 0-0.046v0.002-929.164c0-0.013 0-0.028 0-0.044 0-2.974 2.411-5.384 5.384-5.384 1.325 0 2.538 0.479 3.476 1.273l-0.008-0.007zM1288.324 452.889c1.736-0.908 2.9-2.697 2.9-4.757s-1.164-3.848-2.87-4.743l-0.029-0.014c-26.388-12.923-49.067-28.699-68.991-47.377l0.152 0.141c-48.775-48.777-78.943-116.161-78.943-190.591 0-148.865 120.679-269.543 269.543-269.543 23.418 0 46.138 2.986 67.8 8.599l-1.872-0.412c2.369 0.635 4.087 2.758 4.096 5.284v997.080c0 0.009 0 0.020 0 0.031 0 2.523-1.724 4.643-4.058 5.245l-0.038 0.008c-19.751 5.18-42.426 8.154-65.796 8.154-148.865 0-269.543-120.679-269.543-269.543 0-74.348 30.101-141.665 78.781-190.43l-0.004 0.004c19.77-18.556 42.449-34.342 67.212-46.544l1.627-0.725z" />
<glyph unicode="&#xe955;" horiz-adv-x="747" d="M373.323 960c206.168-0.016 373.295-167.152 373.295-373.323v0c0-206.168-373.323-650.677-373.323-650.677s-373.295 444.51-373.295 650.677c0 206.18 167.142 373.323 373.323 373.323v0z" />
<glyph unicode="&#xe956;" horiz-adv-x="747" d="M381.601 818.678c102.364 0 185.346-82.982 185.346-185.346s-82.982-185.346-185.346-185.346c-102.364 0-185.346 82.982-185.346 185.346v0c0 102.364 82.982 185.346 185.346 185.346v0z" />
<glyph unicode="&#xe957;" horiz-adv-x="747" d="M436.12 633.332c0-30.11-24.409-54.518-54.518-54.518s-54.518 24.409-54.518 54.518c0 30.11 24.409 54.518 54.518 54.518s54.518-24.409 54.518-54.518z" />
<glyph unicode="&#xe958;" d="M1024 448c0-282.77-229.23-512-512-512s-512 229.23-512 512c0 282.77 229.23 512 512 512s512-229.23 512-512z" />
<glyph unicode="&#xe959;" d="M570.839 187.010c-9.752 2.113-19.732 3.738-29.387 6.502-21.386 6.435-39.994 14.844-57.197 25.329l1.072-0.607c-51.025 30.486-94.552 67.306-131.296 110.118l-0.588 0.702c-24.134 26.892-45.189 57.33-62.13 90.232l-1.13 2.415c-10.179 19.011-17.596 41.135-21 64.558l-0.13 1.092c-0.67 3.633-1.052 7.813-1.052 12.083 0 11.041 2.56 21.484 7.119 30.767l-0.182-0.411c2.413 4.442 5.238 8.267 8.515 11.652l-0.014-0.014c11.654 12.028 23.731 23.633 35.434 35.612 7.243 7.312 17.287 11.839 28.388 11.839s21.144-4.527 28.385-11.836l0.003-0.003c18.269-17.879 36.263-35.905 54.142-54.093 7.341-6.868 11.915-16.615 11.915-27.43 0-10.697-4.475-20.349-11.656-27.185l-0.015-0.015c-3.362-3.030-7.308-5.493-11.637-7.192l-0.261-0.090c-10.93-3.68-19.605-11.545-24.276-21.641l-0.105-0.253c-1.768-3.948-2.798-8.557-2.798-13.406 0-3.254 0.464-6.4 1.329-9.375l-0.059 0.237c6.722-22.010 18.14-40.884 33.15-56.231l-0.024 0.025c14.944-17.002 32.815-31.012 52.893-41.336l1.005-0.469c7.461-4.503 16.472-7.168 26.104-7.168 1.109 0 2.21 0.035 3.302 0.105l-0.149-0.008c14.084 0.994 25.861 9.922 30.957 22.304l0.088 0.24c2.955 8.824 8.469 16.135 15.653 21.254l0.129 0.088c5.757 3.769 12.808 6.012 20.384 6.012 10.509 0 20.010-4.316 26.828-11.272l0.006-0.006q28.266-27.518 55.8-55.767c6.777-7.119 10.947-16.774 10.947-27.403 0-11.022-4.483-20.996-11.725-28.2l-0.002-0.002c-12.012-12.223-24.235-24.235-36.328-36.376-8.104-7.969-18.82-13.305-30.748-14.608l-0.232-0.021c-1.176-0.228-2.164-0.487-3.127-0.8l0.185 0.052z" />
<glyph unicode="&#xe95a;" d="M755.842 568.474c-1.88-10.145-3.958-18.583-6.455-26.839l0.457 1.759c-11.139-30.448-32.432-54.953-59.695-69.944l-0.672-0.339c-26.168-15.637-57.72-24.883-91.431-24.883-8.852 0-17.555 0.637-26.065 1.869l0.971-0.115c-0.577 0.121-1.239 0.191-1.918 0.191-2.781 0-5.29-1.164-7.066-3.031l-0.004-0.004c-17.621-17.094-41.686-27.632-68.213-27.632-0.11 0-0.221 0-0.331 0.001h0.017c-15.994-0.146-32.004 0-48.908 0 1.414 1.625 2.227 2.731 3.153 3.657q10.338 10.403 20.74 20.74c8.667 8.792 15.488 19.43 19.815 31.268l0.194 0.606c0.452 0.835 0.718 1.828 0.718 2.883 0 2.348-1.317 4.389-3.253 5.423l-0.033 0.016c-22.182 15.892-38.575 38.622-46.179 65.073l-0.21 0.853c-2.505 8.687-3.946 18.666-3.946 28.981 0 27.919 10.555 53.373 27.892 72.588l-0.085-0.096c25.139 29.622 60.608 49.808 100.78 54.969l0.791 0.083c9.239 1.693 19.871 2.661 30.729 2.661 36.291 0 70.057-10.812 98.251-29.391l-0.672 0.416c27.564-16.833 47.954-43.102 56.832-74.225l0.22-0.901c1.528-5.689 2.406-11.557 3.592-17.31zM552.667 563.875v28.266h-28.266v-28.266zM610.467 592.205h-28.266v-28.266h28.266zM668.152 592.205h-28.266v-28.266h28.266z" />
<glyph unicode="&#xe95b;" d="M552.635 563.826h-28.266v28.266h28.266z" />
<glyph unicode="&#xe95c;" d="M610.45 592.156v-28.266h-28.266v28.266z" />
<glyph unicode="&#xe95d;" d="M668.136 592.189v-28.266h-28.266v28.266z" />
<glyph unicode="&#xe95e;" horiz-adv-x="1488" d="M1487.904-63.816h-1485.881v820.901c6.070-3.587 11.403-6.437 16.415-9.748q354.79-235.148 708.891-470.571c4.576-3.995 10.602-6.431 17.197-6.431s12.621 2.436 17.228 6.457l-0.031-0.026q362.791 241.907 726.18 482.48z" />
<glyph unicode="&#xe95f;" horiz-adv-x="1488" d="M1487.904 895.856q-364.906-241.953-729.813-484.273c-3.701-3.189-8.554-5.131-13.861-5.131-5.503 0-10.518 2.088-14.297 5.515l0.018-0.016q-353.273 235.102-707.512 469.008c-13.309 6.154-22.378 19.391-22.378 34.746 0 2.050 0.162 4.063 0.473 6.026l-0.028-0.217c0.474 6.436 0.744 13.942 0.744 21.511 0 6.004-0.17 11.968-0.505 17.887l0.037-0.82h1487.168z" />
<glyph unicode="&#xe960;" glyph-name="search-1" d="M988.69 33.103l-185.379 194.207c61.793 79.448 105.931 176.552 105.931 282.483-8.828 247.172-211.862 450.207-459.034 450.207s-450.207-203.034-450.207-450.207 203.034-450.207 450.207-450.207c105.931 0 203.034 44.138 282.483 105.931l194.207-194.207c8.828-8.828 17.655-8.828 35.31-8.828s26.483 0 35.31 8.828c8.828 17.655 8.828 44.138-8.828 61.793zM88.276 509.793c0 203.034 158.897 361.931 361.931 361.931s361.931-158.897 361.931-361.931c0-97.103-35.31-185.379-105.931-256 0 0 0 0 0 0s0 0 0-8.828c-70.621-61.793-158.897-97.103-256-97.103-203.034 0-361.931 158.897-361.931 361.931z" />
<glyph unicode="&#xe961;" glyph-name="Download" d="M519.714 197.598l178.517 178.517-40.619 40.619-109.227-109.227v447.693h-57.481v-447.625l-109.227 109.227-40.619-40.619z" />
<glyph unicode="&#xe962;" glyph-name="reload" d="M768 384c0-141.12-114.752-256-256-256s-256 114.88-256 256 114.752 256 256 256l75.488-0.864-37.248-37.248 90.496-90.496 192.384 192.608-192.384 192-90.496-90.496 37.76-37.504h-76c-212 0-384-171.872-384-384s172-384 384-384 384 171.872 384 384h-128z" />
<glyph unicode="&#xe963;" glyph-name="group" d="M512 341.334c58.923 0 112.256 23.893 150.869 62.507 38.571 38.571 62.464 91.904 62.464 150.827s-23.893 112.256-62.464 150.827c-38.613 38.613-91.947 62.507-150.869 62.507s-112.256-23.893-150.869-62.507c-38.571-38.571-62.464-91.904-62.464-150.827s23.893-112.256 62.464-150.827c38.613-38.613 91.947-62.507 150.869-62.507zM853.333 298.667c29.44 0 56.107 11.904 75.435 31.189s31.232 45.952 31.232 75.477c0 29.44-11.904 56.107-31.232 75.435s-45.995 31.232-75.435 31.232c-29.483 0-56.149-11.904-75.477-31.232-19.285-19.328-31.189-45.995-31.189-75.435 0-29.483 11.904-56.149 31.189-75.477s45.995-31.189 75.477-31.189zM853.333 273.494c-56.789 0-99.499-17.323-124.459-41.301-47.573 39.125-122.795 66.475-216.875 66.475-96.683 0-170.453-27.648-217.259-66.731-25.429 24.107-68.608 41.557-124.075 41.557-93.355 0-149.333-46.507-149.333-93.099 0-23.253 55.979-46.592 149.333-46.592 25.771 0 48.896 2.176 69.248 5.675-0.427-3.883-1.707-7.68-1.707-11.52 0-42.667 102.656-85.333 273.792-85.333 160.512 0 273.792 42.667 273.792 85.333 0 3.627-0.469 7.253-0.853 10.88 19.755-3.115 42.453-5.035 68.395-5.035 87.509 0 149.333 23.339 149.333 46.592 0 46.592-58.581 93.099-149.333 93.099zM170.667 298.667c29.44 0 56.107 11.904 75.435 31.232s31.232 45.995 31.232 75.435c0 29.397-11.904 56.064-31.232 75.435-19.328 19.285-45.995 31.232-75.435 31.232-29.483 0-56.149-11.947-75.477-31.232-19.285-19.371-31.189-46.037-31.189-75.435 0-29.44 11.904-56.107 31.189-75.435 19.328-19.328 45.995-31.232 75.477-31.232z" />
<glyph unicode="&#xea92;" glyph-name="instagram" d="M512 867.8c136.8 0 153-0.6 206.8-3 50-2.2 77-10.6 95-17.6 23.8-9.2 41-20.4 58.8-38.2 18-18 29-35 38.4-58.8 7-18 15.4-45.2 17.6-95 2.4-54 3-70.2 3-206.8s-0.6-153-3-206.8c-2.2-50-10.6-77-17.6-95-9.2-23.8-20.4-41-38.2-58.8-18-18-35-29-58.8-38.4-18-7-45.2-15.4-95-17.6-54-2.4-70.2-3-206.8-3s-153 0.6-206.8 3c-50 2.2-77 10.6-95 17.6-23.8 9.2-41 20.4-58.8 38.2-18 18-29 35-38.4 58.8-7 18-15.4 45.2-17.6 95-2.4 54-3 70.2-3 206.8s0.6 153 3 206.8c2.2 50 10.6 77 17.6 95 9.2 23.8 20.4 41 38.2 58.8 18 18 35 29 58.8 38.4 18 7 45.2 15.4 95 17.6 53.8 2.4 70 3 206.8 3zM512 960c-139 0-156.4-0.6-211-3-54.4-2.4-91.8-11.2-124.2-23.8-33.8-13.2-62.4-30.6-90.8-59.2-28.6-28.4-46-57-59.2-90.6-12.6-32.6-21.4-69.8-23.8-124.2-2.4-54.8-3-72.2-3-211.2s0.6-156.4 3-211c2.4-54.4 11.2-91.8 23.8-124.2 13.2-33.8 30.6-62.4 59.2-90.8 28.4-28.4 57-46 90.6-59 32.6-12.6 69.8-21.4 124.2-23.8 54.6-2.4 72-3 211-3s156.4 0.6 211 3c54.4 2.4 91.8 11.2 124.2 23.8 33.6 13 62.2 30.6 90.6 59s46 57 59 90.6c12.6 32.6 21.4 69.8 23.8 124.2 2.4 54.6 3 72 3 211s-0.6 156.4-3 211c-2.4 54.4-11.2 91.8-23.8 124.2-12.6 34-30 62.6-58.6 91-28.4 28.4-57 46-90.6 59-32.6 12.6-69.8 21.4-124.2 23.8-54.8 2.6-72.2 3.2-211.2 3.2v0zM512 711c-145.2 0-263-117.8-263-263s117.8-263 263-263 263 117.8 263 263c0 145.2-117.8 263-263 263zM512 277.4c-94.2 0-170.6 76.4-170.6 170.6s76.4 170.6 170.6 170.6c94.2 0 170.6-76.4 170.6-170.6s-76.4-170.6-170.6-170.6zM846.8 721.4c0-33.91-27.49-61.4-61.4-61.4s-61.4 27.49-61.4 61.4c0 33.91 27.49 61.4 61.4 61.4s61.4-27.49 61.4-61.4z" />
<glyph unicode="&#xead1;" glyph-name="pinterest" d="M512 891.6c-245 0-443.6-198.6-443.6-443.6 0-188 117-348.4 282-413-3.8 35-7.4 89 1.6 127.2 8 34.6 52 220.4 52 220.4s-13.2 26.6-13.2 65.8c0 61.6 35.8 107.8 80.2 107.8 37.8 0 56.2-28.4 56.2-62.4 0-38-24.2-95-36.8-147.6-10.6-44.2 22-80.2 65.6-80.2 78.8 0 139.4 83.2 139.4 203.2 0 106.2-76.4 180.4-185.2 180.4-126.2 0-200.2-94.6-200.2-192.6 0-38.2 14.6-79 33-101.2 3.6-4.4 4.2-8.2 3-12.8-3.4-14-10.8-44.2-12.4-50.4-2-8.2-6.4-9.8-14.8-6-55.4 25.8-90 106.8-90 171.8 0 140 101.6 268.4 293 268.4 153.8 0 273.4-109.6 273.4-256.2 0-152.8-96.4-276-230.2-276-45 0-87.2 23.4-101.6 51 0 0-22.2-84.6-27.6-105.4-10-38.6-37-86.8-55.2-116.2 41.6-12.8 85.6-19.8 131.4-19.8 245 0 443.6 198.6 443.6 443.6 0 245.2-198.6 443.8-443.6 443.8z" />
</font>
</defs>
</svg>
